<svg width="64" height="64" viewBox="0 0 64 64" fill="none" xmlns="http://www.w3.org/2000/svg">
<path d="M32.0002 39.6557C28.3064 39.6557 24.8314 38.2182 22.2189 35.6057C19.6064 32.9932 18.1689 29.5182 18.1689 25.8244C18.1689 22.1307 19.6064 18.6557 22.2189 16.0432C24.8314 13.4307 28.3064 11.9932 32.0002 11.9932C35.6939 11.9932 39.1689 13.4307 41.7814 16.0432C44.3939 18.6557 45.8314 22.1307 45.8314 25.8244C45.8314 29.5182 44.3939 32.9932 41.7814 35.6057C39.1689 38.2182 35.6939 39.6557 32.0002 39.6557ZM32.0002 15.1182C26.0939 15.1182 21.2939 19.9244 21.2939 25.8244C21.2939 31.7307 26.1002 36.5307 32.0002 36.5307C37.9002 36.5307 42.7064 31.7244 42.7064 25.8244C42.7064 19.9182 37.9064 15.1182 32.0002 15.1182Z" fill="#FCC313"/>
<path d="M30.0504 31.975L24.9629 26.8875L27.1754 24.6812L30.0504 27.5562L36.8254 20.7812L39.0379 22.9875L30.0504 31.975Z" fill="#FCC313"/>
<path d="M32.0002 49.319C31.0064 49.319 30.0064 49.0753 29.1002 48.594C28.9127 48.494 28.7314 48.3815 28.5564 48.269C28.2314 48.0503 27.9252 47.8003 27.6502 47.519L25.2627 45.1253C24.6877 44.5503 23.9314 44.2378 23.1189 44.2378H19.7439C16.3502 44.2378 13.5877 41.4753 13.5877 38.0815V34.7065C13.5877 33.9065 13.2627 33.1315 12.7002 32.5628L10.3127 30.1753C7.9127 27.7753 7.9127 23.869 10.3127 21.469L12.7002 19.0815C13.2627 18.519 13.5877 17.7378 13.5877 16.9378V13.5628C13.5877 10.169 16.3502 7.40654 19.7439 7.40654H23.1189C23.9252 7.40654 24.6877 7.09404 25.2627 6.51904L27.6502 4.13154C30.0502 1.73154 33.9564 1.73154 36.3502 4.13154L38.7377 6.51904C39.3127 7.09404 40.0689 7.40654 40.8814 7.40654H44.2564C47.6502 7.40654 50.4127 10.169 50.4127 13.5628V16.9378C50.4127 17.744 50.7252 18.5065 51.3002 19.0815L53.6877 21.469C56.0877 23.869 56.0877 27.7753 53.6877 30.1753L51.3002 32.5628C50.7252 33.1315 50.4127 33.894 50.4127 34.7065V38.0815C50.4127 41.4753 47.6502 44.2378 44.2564 44.2378H40.8814C40.0689 44.2378 39.3127 44.5503 38.7377 45.1253L36.3502 47.5128C36.0689 47.794 35.7627 48.044 35.4377 48.2628C35.2689 48.3753 35.0814 48.4878 34.8939 48.5878C33.9939 49.0753 32.9939 49.319 32.0002 49.319ZM19.7377 10.5378C18.0689 10.5378 16.7064 11.894 16.7064 13.569V16.944C16.7064 18.5878 16.0689 20.1315 14.9064 21.294L12.5189 23.6815C11.3377 24.8628 11.3377 26.7815 12.5189 27.9628L14.9064 30.3503C16.0689 31.5128 16.7064 33.0565 16.7064 34.7003V38.0753C16.7064 39.744 18.0627 41.1065 19.7377 41.1065H23.1127C24.7564 41.1065 26.3002 41.744 27.4627 42.9065L29.8502 45.294C29.9877 45.4315 30.1377 45.5565 30.3002 45.669C30.3877 45.7253 30.4689 45.7815 30.5627 45.8253C31.4564 46.3065 32.5252 46.3065 33.4189 45.8253C33.5127 45.7753 33.6002 45.7253 33.6814 45.669C33.8439 45.5565 34.0002 45.4315 34.1377 45.294L36.5252 42.9065C37.6877 41.744 39.2314 41.1065 40.8752 41.1065H44.2502C45.9189 41.1065 47.2814 39.7503 47.2814 38.0753V34.7003C47.2814 33.0565 47.9189 31.5128 49.0814 30.3503L51.4689 27.9628C52.6502 26.7815 52.6502 24.8628 51.4689 23.6753L49.0814 21.2878C47.9189 20.1253 47.2814 18.5815 47.2814 16.9378V13.5628C47.2814 11.894 45.9252 10.5315 44.2502 10.5315H40.8752C39.2314 10.5315 37.6877 9.89404 36.5252 8.72529L34.1377 6.33779C33.5627 5.76279 32.8064 5.45029 31.9939 5.45029C31.1877 5.45029 30.4252 5.76279 29.8502 6.33779L27.4627 8.72529C26.3002 9.88779 24.7564 10.5253 23.1127 10.5253H19.7377V10.5378Z" fill="#FCC313"/>
<path d="M25.425 61.6816L20.6563 55.819L13.1875 56.9503L19.3125 41.1128H23.1188C24.7625 41.1128 26.3063 41.7503 27.4688 42.9128L29.8563 45.3003C29.9938 45.4378 30.1438 45.5628 30.3063 45.6753L31.3375 46.369L25.425 61.6816ZM21.9563 52.4628L24.45 55.5315L27.575 47.444L25.2625 45.1253C24.6875 44.5503 23.9313 44.2378 23.1188 44.2378H21.4563L18.05 53.0503L21.9563 52.4628ZM38.575 61.6753L32.6563 46.3753L33.6875 45.6815C33.85 45.5753 34 45.4503 34.1375 45.3065L36.525 42.919C37.6875 41.7565 39.2313 41.119 40.875 41.119H44.6875L50.8063 56.9565L43.3375 55.8253L38.575 61.6753ZM36.425 47.444L39.55 55.5315L42.0438 52.4628L45.95 53.0565L42.5438 44.244H40.8813C40.0688 44.244 39.3125 44.5565 38.7375 45.1315L36.425 47.444Z" fill="#FCC313"/>
</svg>
