<svg width="22" height="24" viewBox="0 0 22 24" fill="none" xmlns="http://www.w3.org/2000/svg">
<g clip-path="url(#clip0_464_2205)">
<path d="M19.9471 24H0.671509C0.677134 23.8994 0.687758 23.7981 0.687758 23.6975C0.687758 21.2531 0.704009 18.8081 0.678384 16.3638C0.671509 15.6994 0.760259 15.0869 1.07901 14.5006C1.25029 14.1682 1.4018 13.8259 1.53276 13.4756C1.59152 13.3331 1.62352 13.181 1.62713 13.0269C1.63338 10.676 1.63484 8.32521 1.63151 5.97437V5.6675C1.71588 5.68062 1.76213 5.6825 1.80588 5.695C2.49338 5.89125 3.18088 6.0825 3.86838 6.28687C5.38401 6.73875 6.32838 8.00875 6.33276 9.59562C6.33588 10.65 6.33276 11.7044 6.33276 12.7588V13.0312C7.73463 11.7738 9.33276 11.185 11.1615 11.3081C12.9903 11.4312 14.5028 12.2488 15.7315 13.6919C15.7315 13.2631 15.7153 12.8975 15.7353 12.5344C15.7734 11.9419 15.6841 11.3481 15.4734 10.7931C15.1004 9.83119 14.9465 8.79825 15.0228 7.76937C15.049 7.41187 15.0328 7.05125 15.0228 6.69188C15.0194 6.55264 14.9962 6.4146 14.954 6.28188C14.6371 5.305 14.2978 4.335 13.9959 3.35312C13.6771 2.315 14.0703 1.19375 14.9296 0.53625C15.2978 0.254375 15.7209 0.11625 16.1565 0H19.5253C19.5737 0.0199456 19.6234 0.0368532 19.674 0.0506248C20.0205 0.122333 20.3491 0.262684 20.6405 0.463403C20.9319 0.664121 21.1801 0.921145 21.3706 1.21932C21.5611 1.5175 21.6899 1.85079 21.7495 2.19955C21.8092 2.54831 21.7984 2.90548 21.7178 3.25C21.5982 3.75805 21.4381 4.25568 21.239 4.73812C20.7593 5.86788 20.5617 7.09744 20.6634 8.32063C20.7112 8.96735 20.6169 9.61671 20.3871 10.2231C20.249 10.6031 20.144 10.9956 20.0403 11.3869C19.9902 11.566 19.9636 11.7509 19.9609 11.9369C19.9563 15.8569 19.9551 19.7771 19.9571 23.6975C19.9571 23.7975 19.9503 23.8988 19.9471 24ZM7.94276 19.7287C7.40963 18.9375 7.18526 18.1069 7.30151 17.1944C7.40743 16.3001 7.85926 15.4828 8.56026 14.9175C9.14342 14.4337 9.86782 14.1523 10.6246 14.1154C11.3814 14.0786 12.1297 14.2883 12.7571 14.7131C13.4024 15.1374 13.8865 15.766 14.1321 16.4981C14.5159 17.635 14.329 18.705 13.6584 19.7294C14.1778 19.7294 14.6515 19.7237 15.1253 19.7325C15.2665 19.7325 15.3278 19.6856 15.3753 19.5575C15.7278 18.6462 15.8346 17.7056 15.6253 16.7537C15.2159 14.8744 14.0984 13.5662 12.2753 12.9681C10.4715 12.375 8.81026 12.75 7.38026 14.0081C5.83213 15.3713 5.31151 17.6087 6.06776 19.5238C6.09901 19.6038 6.18526 19.7181 6.24901 19.72C6.79776 19.7356 7.34776 19.7287 7.94276 19.7287ZM17.1478 5.63625V4.0075H18.5509V5.6325C18.834 5.6325 19.0965 5.63875 19.3584 5.62687C19.4053 5.62687 19.4703 5.55188 19.4884 5.49875C19.7696 4.67375 20.0628 3.85187 20.3159 3.0175C20.5621 2.20812 19.984 1.42938 19.1353 1.41313C18.2628 1.39604 17.3901 1.39604 16.5171 1.41313C15.6809 1.43125 15.124 2.19 15.3665 2.98875C15.6221 3.83 15.9153 4.65937 16.1984 5.49187C16.2112 5.52432 16.2313 5.55334 16.2572 5.57666C16.2832 5.59998 16.3142 5.61696 16.3478 5.62625C16.6028 5.64375 16.8584 5.63625 17.1478 5.63625ZM18.529 22.5737V12.25H17.139V12.525C17.139 14.2587 17.1428 15.9931 17.134 17.7269C17.1291 18.0699 17.1001 18.4123 17.0471 18.7512C17.0003 19.0725 16.9159 19.3881 16.8459 19.7163L17.1209 19.7394V22.5725L18.529 22.5737ZM15.7221 21.155H5.72213V21.9675C5.72213 22.4675 5.84401 22.5925 6.34276 22.5925H15.114C15.1765 22.5925 15.239 22.5956 15.3015 22.5925C15.5446 22.57 15.7053 22.4375 15.7178 22.1981C15.7353 21.8506 15.7221 21.5087 15.7221 21.1556V21.155ZM10.8028 19.7287C11.7403 19.84 12.9046 18.9487 12.8996 17.6562C12.9003 17.3795 12.8464 17.1053 12.7411 16.8494C12.6358 16.5934 12.4811 16.3607 12.2859 16.1646C12.0907 15.9684 11.8587 15.8126 11.6033 15.7061C11.3478 15.5996 11.0739 15.5444 10.7971 15.5438C10.5204 15.5431 10.2462 15.597 9.99025 15.7023C9.7343 15.8076 9.50161 15.9623 9.30544 16.1575C9.10928 16.3527 8.95349 16.5847 8.84697 16.8401C8.74045 17.0956 8.68529 17.3695 8.68463 17.6462C8.67901 18.8125 9.61151 19.7294 10.8028 19.7294V19.7287ZM4.33963 16.9662H2.13026V22.5756H4.33026V19.7419L4.58713 19.715C4.50338 19.2556 4.38963 18.8094 4.34838 18.3556C4.30713 17.9019 4.33963 17.4375 4.33963 16.9662ZM16.4646 7.08125C16.3359 8.37812 16.449 9.62562 17.0003 10.8194H18.6853C19.239 9.625 19.3478 8.375 19.2165 7.08125H16.4646ZM3.06526 12.6875H4.92588C4.92588 11.655 4.92901 10.6419 4.92588 9.62875C4.92276 8.515 4.19651 7.70625 3.06588 7.55875L3.06526 12.6875ZM2.19963 15.4856C2.23838 15.5056 2.25151 15.5175 2.26213 15.5175C3.03213 15.5175 3.80276 15.5244 4.57463 15.5175C4.63338 15.5175 4.71463 15.44 4.74651 15.3787C4.87588 15.1287 4.98526 14.8725 5.11088 14.6225C5.19276 14.4606 5.28901 14.3056 5.39338 14.1225C4.54463 14.1225 3.73588 14.1225 2.92713 14.1256C2.89821 14.1257 2.86966 14.1322 2.8436 14.1448C2.81754 14.1573 2.79461 14.1756 2.77651 14.1981C2.57901 14.625 2.39026 15.0544 2.19963 15.4837V15.4856Z" fill="black"/>
</g>
<defs>
<clipPath id="clip0_464_2205">
<rect width="21.1181" height="24" fill="white" transform="translate(0.671509)"/>
</clipPath>
</defs>
</svg>
