<svg width="33" height="24" viewBox="0 0 33 24" fill="none" xmlns="http://www.w3.org/2000/svg">
<g clip-path="url(#clip0_445_1998)">
<path d="M0.0518401 20.0579C0.120822 19.8417 0.17971 19.6213 0.26047 19.4102C0.530729 18.672 1.05261 18.0527 1.73434 17.6612C4.60412 15.9989 7.47502 14.3383 10.347 12.6793C11.9101 11.7758 13.4734 10.8735 15.037 9.9722C15.2011 9.87798 15.2759 9.77787 15.2667 9.58018C15.1935 7.94142 15.9077 6.74937 17.3193 5.93084C18.2001 5.4202 18.5703 4.41659 18.2901 3.45756C18.01 2.49854 17.1385 1.88947 16.0936 1.91387C15.1523 1.93574 14.327 2.62136 14.0965 3.58375C14.0675 3.74872 14.0487 3.91532 14.0401 4.08261C13.972 4.68999 13.5573 5.05425 12.986 5.00799C12.4628 4.96761 12.096 4.50324 12.1271 3.92025C12.2441 1.75572 13.8719 0.134629 16.0642 0.00591836C18.0327 -0.111857 19.8633 1.37715 20.2292 3.39279C20.3715 4.20527 20.2603 5.04188 19.9107 5.78898C19.5611 6.53608 18.99 7.15746 18.275 7.56875C17.4825 8.02975 17.1065 8.67331 17.1469 9.58354C17.1435 9.66443 17.1642 9.74449 17.2065 9.81355C17.2487 9.88261 17.3105 9.93754 17.3841 9.97136C20.9903 12.0515 24.5958 14.1347 28.2009 16.221C28.9731 16.6677 29.7421 17.1195 30.5177 17.5603C31.4759 18.1046 32.0925 18.8936 32.302 19.9847C32.307 20.0108 32.3373 20.0327 32.3558 20.0571V21.0666C32.3339 21.1347 32.3053 21.202 32.2902 21.2719C32.1721 21.8487 31.9046 22.3845 31.5146 22.8256C30.7675 23.6669 29.8136 24.0034 28.7056 24.0034C24.7753 23.9967 20.845 23.9967 16.9147 24.0034C12.5015 24.0034 8.08773 24.0034 3.67342 24.0034C1.99681 24.0034 0.729046 23.1361 0.224296 21.6706C0.156996 21.4746 0.107363 21.2719 0.0493164 21.0725L0.0518401 20.0579ZM16.1878 22.0845H20.6624C23.3847 22.0845 26.1079 22.0803 28.8301 22.0845C29.3349 22.0845 29.7614 21.9449 30.092 21.5587C30.7448 20.7932 30.5126 19.7559 29.557 19.2032C25.1909 16.6767 20.824 14.149 16.4562 11.6202C16.3819 11.5686 16.2935 11.5413 16.203 11.5422C16.1126 11.5431 16.0247 11.5721 15.9515 11.6253C12.8108 13.448 9.67012 15.2665 6.52946 17.0808C5.28441 17.7975 4.03964 18.5168 2.79515 19.2386C2.14992 19.6129 1.84454 20.2279 1.97914 20.8613C2.14739 21.6412 2.71524 22.0828 3.57752 22.0837C7.77928 22.0853 11.9827 22.0856 16.1878 22.0845Z" fill="black"/>
</g>
<defs>
<clipPath id="clip0_445_1998">
<rect width="32.304" height="24" fill="white" transform="translate(0.0518188)"/>
</clipPath>
</defs>
</svg>
