<svg width="25" height="23" viewBox="0 0 25 23" fill="none" xmlns="http://www.w3.org/2000/svg">
<g clip-path="url(#clip0_457_2194)">
<path d="M24.7899 5.53973C24.5325 5.41448 24.282 5.26355 24.0146 5.16398C23.7472 5.06441 23.4773 5.01682 23.1786 4.93854V4.67176C23.1786 3.82759 23.1786 2.98404 23.1786 2.1405C23.1786 1.7253 23.0809 1.62636 22.6682 1.62636H2.91157C2.497 1.62636 2.40119 1.7228 2.40119 2.13987C2.40119 6.56947 2.40119 10.9987 2.40119 15.4274C2.40119 15.8476 2.50577 15.9485 2.93099 15.9485H11.1347V16.2428C11.1347 17.6205 11.1416 18.9926 11.1347 20.3672C11.1187 21.0892 11.3147 21.8 11.6983 22.4119C11.7233 22.4521 11.7457 22.494 11.7653 22.5371C11.7684 22.5554 11.7684 22.574 11.7653 22.5922C11.7377 22.5977 11.7096 22.6013 11.6814 22.6029C10.588 22.6029 9.49398 22.6085 8.40056 22.6029C7.82818 22.5985 7.36038 22.1971 7.23576 21.6328C7.1814 21.3703 7.21801 21.097 7.33956 20.858C7.46111 20.619 7.66037 20.4285 7.90458 20.3177C8.11495 20.2387 8.3369 20.1949 8.56151 20.1881C8.85521 20.1668 9.1508 20.1831 9.45891 20.1831V17.5667H2.93287C2.38679 17.5667 1.88391 17.4452 1.46308 17.07C1.26809 16.9008 1.10866 16.6946 0.994059 16.4632C0.879458 16.2319 0.811969 15.98 0.795511 15.7224C0.787996 15.6291 0.790501 15.5345 0.790501 15.4412V2.1311C0.790501 0.829153 1.60837 0.00940615 2.90782 0.00940615C9.46955 0.00940615 16.0319 0.0187992 22.5937 1.19845e-05C23.6821 -0.00311921 24.5676 0.607465 24.768 1.65454C24.773 1.6694 24.7804 1.68335 24.7899 1.69587V5.53973Z" fill="black"/>
<path d="M24.7897 12.243C24.293 11.9988 23.762 11.9662 23.1984 12.0025C23.1915 11.8898 23.1815 11.7996 23.1808 11.7101C23.1808 10.7181 23.1808 9.72617 23.1808 8.7342C23.1808 8.26703 23.045 8.13051 22.5834 8.13051C20.0367 8.13051 17.49 8.13051 14.9433 8.13051C14.4962 8.13051 14.3421 8.2783 14.3415 8.70978C14.3415 12.2793 14.3415 15.8489 14.3415 19.4185C14.3415 19.4861 14.3484 19.5544 14.3527 19.642H17.8597C17.9887 20.6052 17.6568 21.6072 18.2317 22.5146C18.1678 22.5255 18.1034 22.5329 18.0388 22.5365C16.9923 22.5365 15.9453 22.5415 14.8988 22.5365C14.0221 22.5321 13.3295 22.1821 12.9519 21.3705C12.814 21.0656 12.7418 20.735 12.7402 20.4004C12.7264 16.4873 12.7241 12.5739 12.7333 8.66031C12.7333 7.37025 13.595 6.5242 14.8844 6.52295C17.4702 6.52295 20.0559 6.53548 22.641 6.51606C23.6825 6.50792 24.5774 7.19741 24.754 8.20002C24.7621 8.22124 24.7737 8.24093 24.7884 8.25826L24.7897 12.243Z" fill="black"/>
<path d="M24.7897 21.6178C24.5592 22.2215 24.1046 22.4187 23.4833 22.4062C22.3279 22.383 21.1713 22.4012 20.0152 22.3987C19.4353 22.3987 19.0433 22.1275 18.9149 21.6409C18.888 21.5193 18.8764 21.3947 18.8805 21.2702C18.8805 18.8805 18.8805 16.4905 18.8805 14.1004C18.8805 13.3859 19.2825 12.9932 20.0027 12.9926C21.1506 12.9926 22.2998 13.0164 23.447 12.9832C24.0733 12.965 24.5392 13.1404 24.7903 13.7428L24.7897 21.6178ZM20.1029 20.5657H23.5585V14.2213H20.1029V20.5657ZM21.8251 21.8933C22.0336 21.899 22.2453 21.6948 22.2528 21.4813C22.2515 21.3725 22.208 21.2685 22.1315 21.1913C22.0549 21.114 21.9514 21.0695 21.8426 21.0672C21.7339 21.065 21.6285 21.1051 21.5488 21.179C21.4691 21.253 21.4213 21.3551 21.4155 21.4637C21.4194 21.573 21.4632 21.6771 21.5387 21.7563C21.6142 21.8354 21.7161 21.8842 21.8251 21.8933Z" fill="black"/>
</g>
<defs>
<clipPath id="clip0_457_2194">
<rect width="24" height="22.6022" fill="white" transform="translate(0.789673)"/>
</clipPath>
</defs>
</svg>
