<svg width="23" height="24" viewBox="0 0 23 24" fill="none" xmlns="http://www.w3.org/2000/svg">
<g clip-path="url(#clip0_439_2015)">
<path d="M15.2805 0H16.124C16.1568 0.0189122 16.1917 0.0340384 16.228 0.0450881C17.2299 0.236712 17.962 0.793424 18.4197 1.7002C18.4936 1.84673 18.5606 1.89495 18.7328 1.88806C20.0316 1.8198 21.0386 2.34458 21.6579 3.48493C22.2597 4.59209 22.1589 5.69675 21.4338 6.72752C21.2196 7.03186 20.9566 7.30176 20.6873 7.62113C20.9835 8.12602 21.125 8.70672 21.0943 9.29127C21.0947 9.31964 21.1015 9.34757 21.1142 9.37295C21.1268 9.39833 21.1451 9.4205 21.1676 9.43781C21.5339 9.64071 21.5928 9.96196 21.5477 10.3402C21.4538 11.1386 21.3674 11.9377 21.2828 12.7368C21.12 14.2804 20.9616 15.8253 20.7988 17.3708C20.6322 18.9458 20.455 20.5194 20.2978 22.095C20.1901 23.1496 19.2958 23.9981 18.24 23.9994C13.7404 24.0031 9.24056 24.0031 4.74052 23.9994C3.76486 23.9994 2.89692 23.298 2.72659 22.3336C2.61011 21.6742 2.56252 21.0029 2.4905 20.336C2.37214 19.2426 2.25942 18.1479 2.14357 17.0539C2.02501 15.9368 1.90582 14.8198 1.786 13.703C1.67015 12.6165 1.56432 11.5294 1.43719 10.4467C1.36267 9.81229 1.43406 9.64446 2.00643 9.34888C1.50545 8.48407 1.01199 7.61738 0.50913 6.75507C0.0730863 6.02489 -0.0895806 5.16362 0.0501086 4.3247C0.286195 2.78732 1.70584 1.48227 3.25073 1.41714C4.72424 1.35452 5.84893 1.96008 6.60291 3.23319C7.01621 3.9308 7.417 4.63718 7.82154 5.3398C7.85848 5.40243 7.89982 5.46505 7.94365 5.53644C8.50753 5.13275 9.15492 4.86095 9.83798 4.74114C9.84424 4.69229 9.848 4.6616 9.85238 4.63092C10.0572 3.07162 11.21 1.98137 12.7512 1.87554C12.7956 1.86558 12.8375 1.84617 12.8738 1.81862C12.9101 1.79106 12.94 1.75601 12.9616 1.71585C13.3047 1.04266 13.8139 0.544188 14.5096 0.250489C14.7551 0.1409 15.02 0.0807828 15.2805 0ZM2.94389 11.1743C2.95077 11.2902 2.95203 11.3753 2.96079 11.4593C3.06412 12.413 3.16995 13.3667 3.2739 14.3211C3.40604 15.5698 3.53316 16.8191 3.66529 18.0684C3.79931 19.3328 3.94083 20.5965 4.07171 21.8608C4.11931 22.3249 4.38483 22.5935 4.84573 22.5935C9.2677 22.5935 13.689 22.5935 18.1098 22.5935C18.5851 22.5935 18.8481 22.3255 18.895 21.847C18.9877 20.9077 19.091 19.9684 19.1912 19.029C19.309 17.9273 19.4277 16.826 19.5476 15.7251C19.6678 14.6004 19.7868 13.4763 19.9045 12.3529C19.9452 11.9677 19.9822 11.582 20.0235 11.1731C14.3242 13.1613 8.65254 13.1569 2.94639 11.1743H2.94389ZM14.7294 7.5798C15.0888 6.70773 15.3364 5.79371 15.4665 4.85949C15.5147 4.49252 15.7796 4.23327 16.1296 4.22074C16.6187 4.19945 16.9387 4.59648 16.8592 5.13378C16.5903 6.93586 15.9428 8.66055 14.9592 10.1943C14.8033 10.4404 14.7056 10.7228 14.5647 11.0234C14.69 11.0178 14.7645 11.0203 14.839 11.0096C16.3745 10.7906 17.8837 10.416 19.3434 9.89182C19.452 9.84615 19.5386 9.76018 19.5851 9.65198C19.8256 8.98317 19.6114 8.31812 19.0034 7.82528C18.7466 7.61738 18.6276 7.36438 18.7078 7.04438C18.7836 6.74067 19.004 6.58599 19.3033 6.51773C20.2727 6.29542 20.8244 5.37487 20.5451 4.4562C20.2602 3.51687 19.3002 3.06286 18.3565 3.41605C17.8098 3.62082 17.394 3.37847 17.3001 2.8011C17.2446 2.42329 17.0583 2.07691 16.7737 1.82231C16.4891 1.5677 16.1243 1.421 15.7426 1.40775C14.9786 1.38145 14.286 1.92251 14.1076 2.68524C13.9823 3.20438 13.7018 3.38849 13.1682 3.32399C12.9534 3.29463 12.7353 3.29758 12.5213 3.33276C11.8469 3.458 11.2689 4.12932 11.2933 4.73926C12.919 5.07303 14.0556 6.00986 14.7319 7.5798H14.7294ZM7.33997 7.34497C7.16087 7.03186 6.99054 6.77135 6.8559 6.49205C6.76385 6.30419 6.64236 6.27162 6.44948 6.28603C5.64792 6.34489 4.84573 6.39749 4.04291 6.42755C3.86469 6.4265 3.69063 6.37363 3.54193 6.27538C3.29708 6.11695 3.21817 5.7982 3.30647 5.52391C3.35159 5.38158 3.43995 5.25684 3.55925 5.16705C3.67856 5.07726 3.82288 5.02689 3.97214 5.02294C4.30655 5.00164 4.6422 4.98912 4.97723 4.96908C5.28346 4.95092 5.58968 4.92712 5.946 4.90207C5.65982 4.43178 5.43876 3.96838 5.11938 3.58012C4.5752 2.91319 3.83876 2.67585 2.99649 2.89127C1.62255 3.23883 0.992574 4.74364 1.70083 5.99358C2.44103 7.30364 3.20377 8.60243 3.95962 9.90184C4.01684 9.98929 4.10139 10.0553 4.20009 10.0897C5.71993 10.6001 7.28236 10.9163 8.87171 11.1061C9.08087 11.1305 9.29191 11.1393 9.54177 11.158C9.10342 10.3984 8.68072 9.68955 8.28933 8.96626C8.16972 8.74708 8.03383 8.70888 7.80839 8.72642C7.02248 8.78528 6.23531 8.82662 5.44815 8.87045C5.14944 8.88736 4.91524 8.76963 4.77058 8.50223C4.51383 8.02818 4.84635 7.48963 5.40933 7.45832C6.03805 7.42262 6.66678 7.38442 7.34185 7.34497H7.33997ZM8.66381 6.77386C8.67146 6.79912 8.68088 6.82381 8.69199 6.84775C9.51359 8.27178 10.3333 9.69706 11.1624 11.1167C11.1904 11.1533 11.2259 11.1834 11.2665 11.205C11.3071 11.2266 11.352 11.2392 11.3979 11.242C11.7955 11.242 12.1938 11.2326 12.5877 11.2025C12.7053 11.1909 12.8145 11.1365 12.8946 11.0497C13.3782 10.4644 13.6229 9.71815 13.5798 8.96017C13.5367 8.20219 13.209 7.48843 12.6622 6.96172C11.5576 5.88963 9.75406 5.80008 8.66381 6.77386Z" fill="black"/>
<path d="M11.4843 20.0154H6.89344C6.35989 20.0154 6.09333 19.7463 6.09375 19.2082C6.09375 18.0209 6.09375 16.834 6.09375 15.6475C6.09375 15.1308 6.36741 14.8616 6.89093 14.8616H16.0726C16.6062 14.8616 16.8729 15.1306 16.8729 15.6688C16.8729 16.8473 16.8729 18.0261 16.8729 19.2051C16.8729 19.753 16.6062 20.0154 16.0513 20.0154H11.4843ZM7.50901 18.5939H15.4495V16.2768H7.50901V18.5939Z" fill="black"/>
</g>
<defs>
<clipPath id="clip0_439_2015">
<rect width="22.0518" height="24" fill="white"/>
</clipPath>
</defs>
</svg>
