<svg width="30" height="24" viewBox="0 0 30 24" fill="none" xmlns="http://www.w3.org/2000/svg">
<g clip-path="url(#clip0_445_2011)">
<path d="M0.355774 11.7842C0.567669 11.3092 0.929497 11.1072 1.45044 11.1516C1.73424 11.1753 2.02187 11.1554 2.28043 11.1554C0.738257 6.87162 1.61108 3.34361 5.6302 0.954621C8.34659 -0.660219 12.3458 -0.305275 15.0217 2.62836C16.7474 0.77868 18.8748 -0.115565 21.4107 0.0588472C22.9207 0.162882 24.2739 0.709832 25.4849 1.62473C27.8341 3.40098 29.5392 7.13247 27.6872 11.1554H28.6013C29.2898 11.1554 29.6761 11.4652 29.6723 12.0206C29.6685 12.5637 29.2898 12.8712 28.6151 12.8712C27.9855 12.8712 27.3552 12.8621 26.7264 12.8789C26.5812 12.8848 26.4426 12.9413 26.3347 13.0388C22.7935 16.5683 19.257 20.1022 15.7254 23.6404C15.2473 24.1193 14.783 24.1193 14.3087 23.6404C10.7669 20.0976 7.22414 16.5563 3.68031 13.0166C3.58648 12.9306 3.46549 12.8803 3.33837 12.8743C2.70881 12.8605 2.07771 12.8452 1.44967 12.8743C0.929497 12.8988 0.568434 12.7121 0.355774 12.2386V11.7842ZM14.9436 13.0487C15.0301 12.9034 15.089 12.8077 15.1448 12.7106C15.9929 11.2317 16.841 9.75274 17.6891 8.2738C18.1137 7.53408 18.8557 7.51955 19.3147 8.24091C19.892 9.14969 20.4672 10.0603 21.0404 10.9726C21.0722 11.0344 21.1215 11.0853 21.1823 11.1189C21.243 11.1526 21.3124 11.1674 21.3816 11.1615C22.7269 11.1544 24.0725 11.1544 25.4183 11.1615C25.4924 11.1686 25.5668 11.1535 25.6323 11.1182C25.6978 11.083 25.7514 11.0291 25.7863 10.9634C26.617 9.64079 26.9192 8.2149 26.6514 6.66967C25.8941 2.30937 20.6924 0.269978 17.198 2.98637C16.6885 3.38185 16.2449 3.86455 15.7805 4.31664C15.2282 4.85212 14.7991 4.86053 14.2598 4.32276C13.9767 4.03972 13.6983 3.75057 13.4076 3.47441C11.9152 2.05999 10.1519 1.51228 8.12475 1.87181C3.98936 2.60465 1.91554 7.49354 4.25174 10.9749C4.28633 11.0351 4.33739 11.0841 4.39893 11.1162C4.46046 11.1483 4.52988 11.1622 4.59903 11.1562C5.49557 11.1485 6.39287 11.1439 7.29018 11.1562C7.51049 11.1562 7.60381 11.0797 7.68337 10.8885C8.35042 9.28203 9.02818 7.6756 9.69829 6.06917C9.85128 5.70811 10.0808 5.45185 10.4923 5.42813C10.9314 5.40289 11.1969 5.6408 11.3835 6.01486C11.8073 6.8678 12.2418 7.71614 12.6725 8.56525C13.4214 10.047 14.1703 11.5241 14.9436 13.0487ZM15.001 21.8274L23.9572 12.8712H23.7002C22.7172 12.8712 21.735 12.8659 20.752 12.8712C20.5848 12.8803 20.4184 12.8429 20.2712 12.7631C20.124 12.6833 20.0018 12.5642 19.9182 12.4191C19.548 11.8306 19.1754 11.2442 18.8006 10.6597C18.7203 10.5335 18.6369 10.4088 18.5413 10.2627C18.4763 10.3752 18.4281 10.4562 18.3806 10.5389C17.5004 12.0759 16.6217 13.6138 15.7446 15.1524C15.548 15.4989 15.3017 15.7475 14.8725 15.7337C14.4564 15.72 14.2269 15.4652 14.0532 15.1218C13.5384 14.0914 13.0159 13.0648 12.4958 12.0367C11.8838 10.8234 11.2649 9.61096 10.6315 8.36101C10.5765 8.47881 10.5336 8.56066 10.4977 8.64634C10.0122 9.8045 9.52642 10.9627 9.04042 12.1208C8.7765 12.7511 8.59291 12.8735 7.91974 12.8735C7.38427 12.8735 6.84879 12.8735 6.31714 12.8735C6.22764 12.8735 6.13891 12.8827 6.06088 12.8865L15.001 21.8274Z" fill="black"/>
</g>
<defs>
<clipPath id="clip0_445_2011">
<rect width="29.3157" height="24" fill="white" transform="translate(0.355774)"/>
</clipPath>
</defs>
</svg>
