<svg width="25" height="24" viewBox="0 0 25 24" fill="none" xmlns="http://www.w3.org/2000/svg">
<g clip-path="url(#clip0_468_1988)">
<path d="M11.9924 0H13.5863C13.871 0.0357422 14.1563 0.065625 14.4399 0.108984C17.6223 0.591211 20.24 2.07481 22.226 4.60664C24.313 7.26738 25.1137 10.309 24.6728 13.6564C24.3623 16.0143 23.3983 18.0978 21.8262 19.8832C19.8966 22.0717 17.4896 23.4059 14.6013 23.8611C14.2638 23.9139 13.9245 23.9537 13.5863 24H11.9924C11.7083 23.9643 11.423 23.9332 11.1395 23.8916C8.77245 23.5459 6.67432 22.6025 4.88262 21.0158C2.70758 19.0898 1.38201 16.6875 0.928805 13.8117C0.87597 13.4748 0.83605 13.1355 0.789673 12.7969V11.2031C0.82607 10.9184 0.857184 10.633 0.898278 10.3488C1.24288 7.98984 2.18158 5.8957 3.759 4.10977C5.68689 1.9248 8.0944 0.594141 10.9798 0.138868C11.3156 0.0861334 11.6543 0.046875 11.9924 0ZM12.7603 10.8281L19.4903 4.05469C17.4552 2.37187 15.0986 1.55645 12.4204 1.6084C12.4057 4.08633 11.6191 6.26426 10.0927 8.14277L12.7603 10.8281ZM4.85386 18.7031C7.10874 16.4385 9.34424 14.1943 11.5369 11.993L8.91335 9.35625C8.83116 9.42539 8.73195 9.5127 8.62862 9.59531C6.88155 11.0016 4.88654 11.7437 2.64359 11.8219C2.46748 11.8277 2.38059 11.8594 2.38588 12.0691C2.4211 13.5926 2.73341 15.0533 3.38857 16.435C3.77516 17.2519 4.26782 18.0145 4.85386 18.7031ZM23.1641 11.7205C23.2193 9.62168 21.8485 6.1166 20.6691 5.2752L13.9673 12L15.9662 14.0098C18.0603 12.3334 20.4566 11.5564 23.1641 11.7205ZM6.0356 19.8984C7.83962 21.4137 9.91838 22.2568 12.3059 22.3793C12.1979 19.6254 13.0268 17.2295 14.768 15.1828L12.7486 13.1555L6.0356 19.8984ZM13.9186 22.333C16.056 22.0834 17.9106 21.2707 19.5115 19.9236L15.9169 16.3137C14.4833 18.048 13.8135 20.0385 13.9186 22.333ZM20.7002 18.7383C22.0079 17.2055 22.8407 15.3263 23.0972 13.3295C20.8494 13.1836 18.8704 13.7982 17.1262 15.1459L20.7002 18.7383ZM2.55495 10.1947C3.91692 10.3816 6.92323 9.20918 7.76389 8.19375L4.86795 5.27813C3.67155 6.68186 2.87298 8.37934 2.55495 10.1947ZM8.938 7.01367C10.1332 5.48203 10.7614 3.76699 10.8054 1.79883C9.04447 2.14195 7.40306 2.93585 6.04206 4.10273L8.938 7.01367Z" fill="black"/>
</g>
<defs>
<clipPath id="clip0_468_1988">
<rect width="24" height="24" fill="white" transform="translate(0.789673)"/>
</clipPath>
</defs>
</svg>
