<svg width="24" height="24" viewBox="0 0 24 24" fill="none" xmlns="http://www.w3.org/2000/svg">
<path d="M19.4398 12.9999C19.2198 12.9999 18.9898 12.9299 18.7698 12.8799C18.3243 12.7817 17.8865 12.6514 17.4598 12.4899C16.9959 12.3211 16.4859 12.3299 16.0281 12.5145C15.5703 12.6991 15.1969 13.0465 14.9798 13.4899L14.7598 13.9399C13.7858 13.398 12.8908 12.7251 12.0998 11.9399C11.3146 11.1489 10.6416 10.2539 10.0998 9.27987L10.5198 8.99987C10.9632 8.78279 11.3106 8.4094 11.4952 7.95156C11.6798 7.49372 11.6886 6.98378 11.5198 6.51987C11.361 6.09229 11.2307 5.65467 11.1298 5.20987C11.0798 4.98987 11.0398 4.75987 11.0098 4.52987C10.8884 3.82549 10.5194 3.18761 9.96942 2.73111C9.41941 2.2746 8.72449 2.02948 8.0098 2.03987H5.0098C4.57883 2.03582 4.15205 2.12468 3.75851 2.3004C3.36497 2.47612 3.01391 2.73456 2.72923 3.05815C2.44455 3.38174 2.23293 3.76286 2.10878 4.17558C1.98464 4.5883 1.95087 5.02293 2.0098 5.44987C2.54253 9.63925 4.45582 13.5317 7.44745 16.5125C10.4391 19.4933 14.3385 21.3924 18.5298 21.9099H18.9098C19.6472 21.911 20.3592 21.6404 20.9098 21.1499C21.2262 20.8669 21.4789 20.52 21.6513 20.1322C21.8236 19.7443 21.9118 19.3243 21.9098 18.8999V15.8999C21.8975 15.2053 21.6446 14.5364 21.1941 14.0075C20.7437 13.4786 20.1236 13.1225 19.4398 12.9999ZM19.9398 18.9999C19.9396 19.1419 19.9092 19.2822 19.8506 19.4115C19.792 19.5408 19.7065 19.6562 19.5998 19.7499C19.4881 19.8463 19.3574 19.9184 19.2162 19.9615C19.075 20.0045 18.9264 20.0176 18.7798 19.9999C15.0347 19.5197 11.556 17.8064 8.89251 15.1302C6.22899 12.454 4.53221 8.96721 4.0698 5.21987C4.05388 5.07339 4.06783 4.9252 4.1108 4.78426C4.15377 4.64332 4.22487 4.51256 4.3198 4.39987C4.41351 4.2932 4.52886 4.20771 4.65817 4.14909C4.78749 4.09046 4.92781 4.06005 5.0698 4.05987H8.0698C8.30234 4.05469 8.52942 4.13075 8.71194 4.27494C8.89446 4.41913 9.02101 4.62244 9.0698 4.84987C9.1098 5.1232 9.1598 5.3932 9.2198 5.65987C9.33532 6.18701 9.48906 6.70505 9.6798 7.20987L8.2798 7.85987C8.16009 7.91479 8.05242 7.99282 7.96295 8.08946C7.87349 8.18611 7.804 8.29948 7.75847 8.42306C7.71294 8.54664 7.69227 8.678 7.69764 8.80959C7.70302 8.94118 7.73434 9.07041 7.7898 9.18987C9.229 12.2726 11.707 14.7507 14.7898 16.1899C15.0333 16.2899 15.3063 16.2899 15.5498 16.1899C15.6745 16.1453 15.7891 16.0763 15.887 15.9871C15.9848 15.8978 16.064 15.79 16.1198 15.6699L16.7398 14.2699C17.2568 14.4547 17.7844 14.6084 18.3198 14.7299C18.5865 14.7899 18.8565 14.8399 19.1298 14.8799C19.3572 14.9287 19.5605 15.0552 19.7047 15.2377C19.8489 15.4202 19.925 15.6473 19.9198 15.8799L19.9398 18.9999Z" fill="#FCC313"/>
</svg>
