<svg width="32" height="32" viewBox="0 0 32 32" fill="none" xmlns="http://www.w3.org/2000/svg">
<path d="M25.3334 5.3335H6.66675C5.60588 5.3335 4.58847 5.75492 3.83832 6.50507C3.08818 7.25521 2.66675 8.27263 2.66675 9.3335V22.6668C2.66675 23.7277 3.08818 24.7451 3.83832 25.4953C4.58847 26.2454 5.60588 26.6668 6.66675 26.6668H25.3334C26.3943 26.6668 27.4117 26.2454 28.1618 25.4953C28.912 24.7451 29.3334 23.7277 29.3334 22.6668V9.3335C29.3334 8.27263 28.912 7.25521 28.1618 6.50507C27.4117 5.75492 26.3943 5.3335 25.3334 5.3335ZM24.5694 8.00016L16.8001 14.4002C16.578 14.5691 16.3084 14.6636 16.0295 14.6703C15.7506 14.677 15.4766 14.5956 15.2467 14.4375L7.43075 8.00016H24.5694ZM25.3334 24.0002H6.66675C6.31313 24.0002 5.97399 23.8597 5.72394 23.6096C5.47389 23.3596 5.33341 23.0205 5.33341 22.6668V9.7335L13.6001 16.5335C14.288 17.0486 15.1247 17.3261 15.9841 17.3242C16.8735 17.3228 17.7383 17.0322 18.4481 16.4962L26.6667 9.7335V22.6668C26.6667 23.0205 26.5263 23.3596 26.2762 23.6096C26.0262 23.8597 25.687 24.0002 25.3334 24.0002Z" fill="#383838"/>
</svg>
