<svg width="24" height="24" viewBox="0 0 24 24" fill="none" xmlns="http://www.w3.org/2000/svg">
<path d="M21.0905 1.3457H2.68175C1.80023 1.3457 1.08575 2.03834 1.08575 2.89322V21.3975C1.08575 22.2523 1.80047 22.9457 2.68175 22.9457H21.0905C21.972 22.9457 22.6855 22.2521 22.6855 21.3975V2.89322C22.6855 2.03858 21.972 1.3457 21.0905 1.3457ZM7.63415 19.4263H4.37063V9.67418H7.63415V19.4263ZM6.00263 8.34194H5.98079C4.88639 8.34194 4.17695 7.59338 4.17695 6.65642C4.17695 5.7005 4.90727 4.97234 6.02327 4.97234C7.13951 4.97234 7.82615 5.70026 7.84775 6.65642C7.84775 7.59362 7.13975 8.34194 6.00263 8.34194ZM19.3985 19.4263H16.1359V14.2087C16.1359 12.8974 15.6631 12.0029 14.4833 12.0029C13.5806 12.0029 13.045 12.6065 12.8098 13.189C12.7224 13.3973 12.701 13.6882 12.701 13.9791V19.4261H9.43895C9.43895 19.4261 9.48167 10.5886 9.43895 9.67394H12.7013V11.0566C13.1345 10.3923 13.9082 9.4445 15.641 9.4445C17.7883 9.4445 19.3985 10.8375 19.3985 13.8343V19.4263ZM12.6802 11.0875C12.6859 11.0784 12.6936 11.0674 12.7013 11.0568V11.0875H12.6802Z" fill="#A7A7A7"/>
</svg>
