<svg width="96" height="96" viewBox="0 0 96 96" fill="none" xmlns="http://www.w3.org/2000/svg">
<path d="M50.3401 69.1013H22.1539C20.113 69.1013 18.4615 70.7527 18.4615 72.7936C18.4615 74.8345 20.113 76.4859 22.1539 76.4859H50.3401C52.381 76.4859 54.0325 74.8345 54.0325 72.7936C54.0325 70.7527 52.381 69.1013 50.3401 69.1013ZM50.3438 54.159C43.6129 54.154 49.4355 54.1489 22.1539 54.1914C20.113 54.1914 18.4615 55.8429 18.4615 57.8837C18.4615 59.9246 20.113 61.576 22.1539 61.576C22.5243 61.5756 52.3666 61.5453 50.3401 61.5436C52.3774 61.5436 54.0325 59.8922 54.0325 57.8549C54.0325 55.814 52.381 54.159 50.3438 54.159ZM47.5349 19.4751L24.9411 19.5003C21.3678 19.5075 18.4615 22.421 18.4615 25.9907V39.1914C18.4615 42.772 21.3714 45.6818 24.9519 45.6818H47.5421C51.1226 45.6818 54.0325 42.772 54.0325 39.1914V25.9655C54.0325 22.385 51.119 19.4751 47.5349 19.4751ZM46.6478 38.2972H25.8462V26.885L46.6478 26.8597V38.2972Z" fill="black"/>
<path d="M92.3077 20.8327C92.3077 12.3447 85.9399 5.30989 77.8125 4.82311C75.5407 4.67484 23.3786 4.79328 19.1394 4.79426C10.6226 4.79426 3.69232 11.7246 3.69232 20.2414V84.1861C3.69232 88.0839 6.86179 91.2534 10.7596 91.2534H61.7344C65.6322 91.2534 68.8017 88.0839 68.8017 84.1861V51.15H85.2404C89.1382 51.15 92.3077 47.9806 92.3077 44.0827V20.8327ZM61.4171 83.8688H11.0769V20.2414C11.0769 15.7955 14.6935 12.1789 19.1394 12.1789C24.462 12.1741 10.6843 12.1864 63.7031 12.1392C62.2206 14.5228 61.4171 17.6726 61.4171 20.2414V47.4577V83.8688ZM84.9231 43.7654H68.8017V20.2414C68.8017 15.3021 73.0739 11.9253 77.3726 12.1933C81.5337 12.4457 84.9231 16.3183 84.9231 20.8327V43.7654Z" fill="black"/>
</svg>
