<svg width="48" height="48" viewBox="0 0 48 48" fill="none" xmlns="http://www.w3.org/2000/svg">
<path d="M10.5003 24.1999C10.5003 23.7892 10.6583 23.3954 10.9396 23.105C11.2209 22.8146 11.6025 22.6515 12.0003 22.6515L32.3853 22.6515L30.4353 20.6541C30.1528 20.3625 29.9941 19.9671 29.9941 19.5547C29.9941 19.1424 30.1528 18.7469 30.4353 18.4554C30.7177 18.1638 31.1008 18 31.5003 18C31.8997 18 32.2828 18.1638 32.5653 18.4554L37.0653 23.1005C37.2734 23.3183 37.4144 23.5948 37.4705 23.8951C37.5265 24.1955 37.4951 24.5063 37.3803 24.7883C37.2677 25.071 37.0767 25.3131 36.8311 25.4839C36.5855 25.6548 36.2964 25.7467 36.0003 25.7483L12.0003 25.7483C11.6025 25.7483 11.2209 25.5851 10.9396 25.2948C10.6583 25.0044 10.5003 24.6105 10.5003 24.1999Z" fill="#FCC313"/>
<path d="M29.9997 28.8449C29.9986 28.6411 30.0364 28.4391 30.1111 28.2505C30.1857 28.0618 30.2957 27.8902 30.4347 27.7455L34.9347 23.1004C35.2172 22.8088 35.6003 22.645 35.9997 22.645C36.1975 22.645 36.3934 22.6852 36.5761 22.7634C36.7588 22.8415 36.9249 22.956 37.0647 23.1004C37.2046 23.2448 37.3155 23.4161 37.3912 23.6048C37.4669 23.7934 37.5059 23.9956 37.5059 24.1997C37.5059 24.6121 37.3472 25.0075 37.0647 25.2991L32.5647 29.9443C32.4253 30.0894 32.2594 30.2046 32.0766 30.2832C31.8938 30.3618 31.6977 30.4023 31.4997 30.4023C31.3017 30.4023 31.1056 30.3618 30.9229 30.2832C30.7401 30.2046 30.5742 30.0894 30.4347 29.9443C30.2957 29.7996 30.1857 29.628 30.1111 29.4393C30.0364 29.2507 29.9986 29.0487 29.9997 28.8449Z" fill="#FCC313"/>
</svg>
