<svg width="24" height="24" viewBox="0 0 24 24" fill="none" xmlns="http://www.w3.org/2000/svg">
<path d="M19.4396 12.9998C19.2196 12.9998 18.9896 12.9298 18.7696 12.8798C18.3241 12.7816 17.8863 12.6513 17.4596 12.4898C16.9957 12.321 16.4858 12.3298 16.0279 12.5144C15.5701 12.699 15.1967 13.0464 14.9796 13.4898L14.7596 13.9398C13.7856 13.398 12.8906 12.725 12.0996 11.9398C11.3144 11.1488 10.6414 10.2538 10.0996 9.27981L10.5196 8.99981C10.963 8.78272 11.3104 8.40934 11.495 7.9515C11.6796 7.49366 11.6884 6.98372 11.5196 6.51981C11.3608 6.09223 11.2306 5.65461 11.1296 5.20981C11.0796 4.98981 11.0396 4.75981 11.0096 4.52981C10.8882 3.82543 10.5192 3.18755 9.96923 2.73105C9.41923 2.27454 8.72431 2.02942 8.00961 2.03981H5.00961C4.57864 2.03576 4.15186 2.12462 3.75832 2.30034C3.36478 2.47605 3.01372 2.7345 2.72904 3.05809C2.44436 3.38168 2.23275 3.7628 2.1086 4.17552C1.98445 4.58824 1.95069 5.02287 2.00961 5.44981C2.54235 9.63919 4.45564 13.5317 7.44727 16.5124C10.4389 19.4932 14.3383 21.3923 18.5296 21.9098H18.9096C19.647 21.9109 20.359 21.6403 20.9096 21.1498C21.226 20.8669 21.4787 20.52 21.6511 20.1321C21.8235 19.7443 21.9116 19.3242 21.9096 18.8998V15.8998C21.8974 15.2052 21.6444 14.5364 21.194 14.0075C20.7435 13.4786 20.1234 13.1224 19.4396 12.9998ZM19.9396 18.9998C19.9394 19.1418 19.909 19.2821 19.8504 19.4114C19.7918 19.5407 19.7063 19.6561 19.5996 19.7498C19.4879 19.8463 19.3572 19.9184 19.216 19.9614C19.0748 20.0045 18.9262 20.0175 18.7796 19.9998C15.0345 19.5196 11.5559 17.8063 8.89233 15.1301C6.22881 12.4539 4.53202 8.96714 4.06961 5.21981C4.0537 5.07333 4.06765 4.92514 4.11061 4.7842C4.15358 4.64326 4.22468 4.51249 4.31961 4.39981C4.41332 4.29314 4.52867 4.20765 4.65799 4.14902C4.78731 4.0904 4.92763 4.05999 5.06961 4.05981H8.06961C8.30216 4.05463 8.52924 4.13069 8.71176 4.27488C8.89428 4.41907 9.02082 4.62238 9.06961 4.84981C9.10961 5.12314 9.15961 5.39314 9.21961 5.65981C9.33513 6.18695 9.48887 6.70499 9.67961 7.20981L8.27961 7.85981C8.15991 7.91473 8.05224 7.99275 7.96277 8.0894C7.87331 8.18605 7.80381 8.29942 7.75828 8.423C7.71275 8.54658 7.69208 8.67794 7.69746 8.80953C7.70284 8.94112 7.73415 9.07035 7.78961 9.18981C9.22881 12.2726 11.7069 14.7506 14.7896 16.1898C15.0331 16.2898 15.3062 16.2898 15.5496 16.1898C15.6743 16.1452 15.7889 16.0763 15.8868 15.987C15.9846 15.8977 16.0638 15.7899 16.1196 15.6698L16.7396 14.2698C17.2566 14.4547 17.7842 14.6083 18.3196 14.7298C18.5863 14.7898 18.8563 14.8398 19.1296 14.8798C19.357 14.9286 19.5604 15.0551 19.7045 15.2377C19.8487 15.4202 19.9248 15.6473 19.9196 15.8798L19.9396 18.9998Z" fill="#FCC313"/>
</svg>
