<svg width="32" height="32" viewBox="0 0 32 32" fill="none" xmlns="http://www.w3.org/2000/svg">
<path d="M11.9999 15.9998C11.9989 15.8243 12.0325 15.6503 12.0989 15.4879C12.1652 15.3254 12.263 15.1777 12.3866 15.0531L17.7199 9.71976C17.971 9.46869 18.3115 9.32764 18.6666 9.32764C19.0217 9.32764 19.3622 9.46869 19.6132 9.71976C19.8643 9.97083 20.0054 10.3114 20.0054 10.6664C20.0054 11.0215 19.8643 11.362 19.6132 11.6131L15.2132 15.9998L19.5999 20.3864C19.8184 20.6415 19.9325 20.9696 19.9195 21.3052C19.9066 21.6407 19.7675 21.9591 19.53 22.1965C19.2925 22.434 18.9742 22.5731 18.6387 22.586C18.3031 22.599 17.975 22.4849 17.7199 22.2664L12.3866 16.9331C12.1403 16.6847 12.0014 16.3495 11.9999 15.9998Z" fill="#FCC313"/>
</svg>
