<svg width="32" height="32" viewBox="0 0 32 32" fill="none" xmlns="http://www.w3.org/2000/svg">
<path d="M20.0001 16.0002C20.0011 16.1757 19.9675 16.3497 19.9011 16.5121C19.8348 16.6746 19.737 16.8223 19.6134 16.9469L14.2801 22.2802C14.029 22.5313 13.6885 22.6724 13.3334 22.6724C12.9783 22.6724 12.6378 22.5313 12.3868 22.2802C12.1357 22.0292 11.9946 21.6886 11.9946 21.3336C11.9946 20.9785 12.1357 20.638 12.3868 20.3869L16.7868 16.0002L12.4001 11.6136C12.1816 11.3585 12.0675 11.0304 12.0805 10.6948C12.0934 10.3593 12.2325 10.0409 12.47 9.80349C12.7075 9.56603 13.0258 9.42692 13.3613 9.41396C13.6969 9.401 14.025 9.51514 14.2801 9.73357L19.6134 15.0669C19.8597 15.3153 19.9986 15.6505 20.0001 16.0002Z" fill="#FCC313"/>
</svg>
