<svg width="33" height="32" viewBox="0 0 33 32" fill="none" xmlns="http://www.w3.org/2000/svg">
<path d="M20.5001 16.0002C20.5011 16.1757 20.4675 16.3497 20.4011 16.5121C20.3348 16.6746 20.237 16.8223 20.1134 16.9469L14.7801 22.2802C14.529 22.5313 14.1885 22.6724 13.8334 22.6724C13.4783 22.6724 13.1378 22.5313 12.8868 22.2802C12.6357 22.0292 12.4946 21.6886 12.4946 21.3336C12.4946 20.9785 12.6357 20.638 12.8868 20.3869L17.2868 16.0002L12.9001 11.6136C12.6816 11.3585 12.5675 11.0304 12.5805 10.6948C12.5934 10.3593 12.7325 10.0409 12.97 9.80349C13.2075 9.56603 13.5258 9.42692 13.8613 9.41396C14.1969 9.401 14.525 9.51514 14.7801 9.73357L20.1134 15.0669C20.3597 15.3153 20.4986 15.6505 20.5001 16.0002Z" fill="#383838"/>
</svg>
