<svg width="24" height="25" viewBox="0 0 24 25" fill="none" xmlns="http://www.w3.org/2000/svg">
<path d="M15 12.5003C15.0008 12.6319 14.9755 12.7624 14.9258 12.8842C14.876 13.006 14.8027 13.1169 14.71 13.2103L10.71 17.2103C10.5217 17.3986 10.2663 17.5044 10 17.5044C9.7337 17.5044 9.47831 17.3986 9.29 17.2103C9.1017 17.022 8.99591 16.7666 8.99591 16.5003C8.99591 16.234 9.1017 15.9786 9.29 15.7903L12.59 12.5003L9.3 9.2103C9.13618 9.019 9.05057 8.77293 9.06029 8.52125C9.07001 8.26957 9.17434 8.03083 9.35244 7.85274C9.53053 7.67464 9.76927 7.57031 10.0209 7.56059C10.2726 7.55087 10.5187 7.63648 10.71 7.8003L14.71 11.8003C14.8947 11.9866 14.9989 12.238 15 12.5003Z" fill="#A7A7A7"/>
</svg>
