<svg width="24" height="25" viewBox="0 0 24 25" fill="none" xmlns="http://www.w3.org/2000/svg">
<path d="M15.0002 12.5003C15.0009 12.6319 14.9757 12.7624 14.926 12.8842C14.8762 13.006 14.8029 13.1169 14.7102 13.2103L10.7102 17.2103C10.5219 17.3986 10.2665 17.5044 10.0002 17.5044C9.73388 17.5044 9.47849 17.3986 9.29018 17.2103C9.10188 17.022 8.99609 16.7666 8.99609 16.5003C8.99609 16.234 9.10188 15.9786 9.29018 15.7903L12.5902 12.5003L9.30018 9.2103C9.13636 9.019 9.05075 8.77293 9.06047 8.52125C9.07019 8.26957 9.17453 8.03083 9.35262 7.85274C9.53072 7.67464 9.76945 7.57031 10.0211 7.56059C10.2728 7.55087 10.5189 7.63648 10.7102 7.8003L14.7102 11.8003C14.8949 11.9866 14.9991 12.238 15.0002 12.5003Z" fill="#A7A7A7"/>
</svg>
