<svg width="32" height="32" viewBox="0 0 32 32" fill="none" xmlns="http://www.w3.org/2000/svg">
<path d="M25.3333 5.3335H6.66667C5.60581 5.3335 4.58839 5.75492 3.83824 6.50507C3.0881 7.25521 2.66667 8.27263 2.66667 9.3335V22.6668C2.66667 23.7277 3.0881 24.7451 3.83824 25.4953C4.58839 26.2454 5.60581 26.6668 6.66667 26.6668H25.3333C26.3942 26.6668 27.4116 26.2454 28.1618 25.4953C28.9119 24.7451 29.3333 23.7277 29.3333 22.6668V9.3335C29.3333 8.27263 28.9119 7.25521 28.1618 6.50507C27.4116 5.75492 26.3942 5.3335 25.3333 5.3335ZM24.5693 8.00016L16.8 14.4002C16.578 14.5691 16.3083 14.6636 16.0294 14.6703C15.7505 14.677 15.4766 14.5956 15.2467 14.4375L7.43067 8.00016H24.5693ZM25.3333 24.0002H6.66667C6.31305 24.0002 5.97391 23.8597 5.72386 23.6096C5.47381 23.3596 5.33334 23.0205 5.33334 22.6668V9.7335L13.6 16.5335C14.2879 17.0486 15.1246 17.3261 15.984 17.3242C16.8734 17.3228 17.7383 17.0322 18.448 16.4962L26.6667 9.7335V22.6668C26.6667 23.0205 26.5262 23.3596 26.2761 23.6096C26.0261 23.8597 25.687 24.0002 25.3333 24.0002Z" fill="#383838"/>
</svg>
