<svg width="32" height="32" viewBox="0 0 32 32" fill="none" xmlns="http://www.w3.org/2000/svg">
<path d="M25.3327 5.3335H6.66602C5.60515 5.3335 4.58773 5.75492 3.83759 6.50507C3.08744 7.25521 2.66602 8.27263 2.66602 9.3335V22.6668C2.66602 23.7277 3.08744 24.7451 3.83759 25.4953C4.58773 26.2454 5.60515 26.6668 6.66602 26.6668H25.3327C26.3935 26.6668 27.411 26.2454 28.1611 25.4953C28.9113 24.7451 29.3327 23.7277 29.3327 22.6668V9.3335C29.3327 8.27263 28.9113 7.25521 28.1611 6.50507C27.411 5.75492 26.3935 5.3335 25.3327 5.3335ZM24.5687 8.00016L16.7993 14.4002C16.5773 14.5691 16.3076 14.6636 16.0287 14.6703C15.7498 14.677 15.4759 14.5956 15.246 14.4375L7.43002 8.00016H24.5687ZM25.3327 24.0002H6.66602C6.31239 24.0002 5.97326 23.8597 5.72321 23.6096C5.47316 23.3596 5.33268 23.0205 5.33268 22.6668V9.7335L13.5993 16.5335C14.2873 17.0486 15.124 17.3261 15.9833 17.3242C16.8728 17.3228 17.7376 17.0322 18.4473 16.4962L26.666 9.7335V22.6668C26.666 23.0205 26.5255 23.3596 26.2755 23.6096C26.0254 23.8597 25.6863 24.0002 25.3327 24.0002Z" fill="#383838"/>
</svg>
