<svg width="32" height="32" viewBox="0 0 32 32" fill="none" xmlns="http://www.w3.org/2000/svg">
<path d="M25.3337 5.3335H6.66699C5.60613 5.3335 4.58871 5.75492 3.83857 6.50507C3.08842 7.25521 2.66699 8.27263 2.66699 9.3335V22.6668C2.66699 23.7277 3.08842 24.7451 3.83857 25.4953C4.58871 26.2454 5.60613 26.6668 6.66699 26.6668H25.3337C26.3945 26.6668 27.4119 26.2454 28.1621 25.4953C28.9122 24.7451 29.3337 23.7277 29.3337 22.6668V9.3335C29.3337 8.27263 28.9122 7.25521 28.1621 6.50507C27.4119 5.75492 26.3945 5.3335 25.3337 5.3335ZM24.5697 8.00016L16.8003 14.4002C16.5783 14.5691 16.3086 14.6636 16.0297 14.6703C15.7508 14.677 15.4769 14.5956 15.247 14.4375L7.43099 8.00016H24.5697ZM25.3337 24.0002H6.66699C6.31337 24.0002 5.97423 23.8597 5.72418 23.6096C5.47413 23.3596 5.33366 23.0205 5.33366 22.6668V9.7335L13.6003 16.5335C14.2882 17.0486 15.1249 17.3261 15.9843 17.3242C16.8737 17.3228 17.7386 17.0322 18.4483 16.4962L26.667 9.7335V22.6668C26.667 23.0205 26.5265 23.3596 26.2765 23.6096C26.0264 23.8597 25.6873 24.0002 25.3337 24.0002Z" fill="#383838"/>
</svg>
