<svg width="32" height="32" viewBox="0 0 32 32" fill="none" xmlns="http://www.w3.org/2000/svg">
<path d="M25.3333 5.3335H6.66663C5.60576 5.3335 4.58834 5.75492 3.8382 6.50507C3.08805 7.25521 2.66663 8.27263 2.66663 9.3335V22.6668C2.66663 23.7277 3.08805 24.7451 3.8382 25.4953C4.58834 26.2454 5.60576 26.6668 6.66663 26.6668H25.3333C26.3942 26.6668 27.4116 26.2454 28.1617 25.4953C28.9119 24.7451 29.3333 23.7277 29.3333 22.6668V9.3335C29.3333 8.27263 28.9119 7.25521 28.1617 6.50507C27.4116 5.75492 26.3942 5.3335 25.3333 5.3335ZM24.5693 8.00016L16.8 14.4002C16.5779 14.5691 16.3082 14.6636 16.0293 14.6703C15.7504 14.677 15.4765 14.5956 15.2466 14.4375L7.43063 8.00016H24.5693ZM25.3333 24.0002H6.66663C6.313 24.0002 5.97387 23.8597 5.72382 23.6096C5.47377 23.3596 5.33329 23.0205 5.33329 22.6668V9.7335L13.6 16.5335C14.2879 17.0486 15.1246 17.3261 15.984 17.3242C16.8734 17.3228 17.7382 17.0322 18.448 16.4962L26.6666 9.7335V22.6668C26.6666 23.0205 26.5262 23.3596 26.2761 23.6096C26.0261 23.8597 25.6869 24.0002 25.3333 24.0002Z" fill="#383838"/>
</svg>
