<svg width="40" height="40" viewBox="0 0 40 40" fill="none" xmlns="http://www.w3.org/2000/svg">
<path d="M34.833 3.3335H5.16634C4.68011 3.3335 4.2138 3.52665 3.86998 3.87047C3.52616 4.21428 3.33301 4.6806 3.33301 5.16683V34.8335C3.33301 35.0743 3.38043 35.3127 3.47256 35.5351C3.5647 35.7575 3.69974 35.9596 3.86998 36.1299C4.04022 36.3001 4.24232 36.4351 4.46476 36.5273C4.68719 36.6194 4.92558 36.6668 5.16634 36.6668H21.133V23.7502H16.7997V18.7502H21.133V15.0002C21.0432 14.1198 21.1472 13.2304 21.4375 12.3944C21.7279 11.5584 22.1976 10.7961 22.8138 10.1608C23.43 9.52562 24.1776 9.0329 25.0044 8.71723C25.8311 8.40155 26.7169 8.27058 27.5997 8.3335C28.8969 8.32551 30.1935 8.39229 31.483 8.5335V13.0335H28.833C26.733 13.0335 26.333 14.0335 26.333 15.4835V18.7002H31.333L30.683 23.7002H26.333V36.6668H34.833C35.0738 36.6668 35.3122 36.6194 35.5346 36.5273C35.757 36.4351 35.9591 36.3001 36.1294 36.1299C36.2996 35.9596 36.4347 35.7575 36.5268 35.5351C36.6189 35.3127 36.6663 35.0743 36.6663 34.8335V5.16683C36.6663 4.92607 36.6189 4.68767 36.5268 4.46524C36.4347 4.24281 36.2996 4.04071 36.1294 3.87047C35.9591 3.70023 35.757 3.56518 35.5346 3.47305C35.3122 3.38092 35.0738 3.3335 34.833 3.3335Z" fill="#FAFAFA"/>
</svg>
