<svg width="40" height="40" viewBox="0 0 40 40" fill="none" xmlns="http://www.w3.org/2000/svg">
<path d="M34.834 3.3335H5.16732C4.68109 3.3335 4.21477 3.52665 3.87096 3.87047C3.52714 4.21428 3.33398 4.6806 3.33398 5.16683V34.8335C3.33398 35.0743 3.38141 35.3127 3.47354 35.5351C3.56567 35.7575 3.70071 35.9596 3.87096 36.1299C4.0412 36.3001 4.2433 36.4351 4.46573 36.5273C4.68816 36.6194 4.92656 36.6668 5.16732 36.6668H21.134V23.7502H16.8007V18.7502H21.134V15.0002C21.0442 14.1198 21.1482 13.2304 21.4385 12.3944C21.7289 11.5584 22.1986 10.7961 22.8148 10.1608C23.4309 9.52562 24.1786 9.0329 25.0054 8.71723C25.8321 8.40155 26.7179 8.27058 27.6007 8.3335C28.8979 8.32551 30.1945 8.39229 31.484 8.5335V13.0335H28.834C26.734 13.0335 26.334 14.0335 26.334 15.4835V18.7002H31.334L30.684 23.7002H26.334V36.6668H34.834C35.0747 36.6668 35.3131 36.6194 35.5356 36.5273C35.758 36.4351 35.9601 36.3001 36.1303 36.1299C36.3006 35.9596 36.4356 35.7575 36.5278 35.5351C36.6199 35.3127 36.6673 35.0743 36.6673 34.8335V5.16683C36.6673 4.92607 36.6199 4.68767 36.5278 4.46524C36.4356 4.24281 36.3006 4.04071 36.1303 3.87047C35.9601 3.70023 35.758 3.56518 35.5356 3.47305C35.3131 3.38092 35.0747 3.3335 34.834 3.3335Z" fill="#FAFAFA"/>
</svg>
