<svg width="40" height="40" viewBox="0 0 40 40" fill="none" xmlns="http://www.w3.org/2000/svg">
<path d="M34.8335 3.33344H5.16683C4.6806 3.33344 4.21428 3.52659 3.87047 3.87041C3.52665 4.21422 3.3335 4.68054 3.3335 5.16677V34.8334C3.3335 35.0742 3.38092 35.3126 3.47305 35.535C3.56518 35.7575 3.70023 35.9596 3.87047 36.1298C4.04071 36.3 4.24281 36.4351 4.46524 36.5272C4.68767 36.6194 4.92607 36.6668 5.16683 36.6668H21.1335V23.7501H16.8002V18.7501H21.1335V15.0001C21.0437 14.1197 21.1477 13.2303 21.438 12.3943C21.7284 11.5583 22.1981 10.796 22.8143 10.1608C23.4304 9.52556 24.1781 9.03284 25.0049 8.71717C25.8316 8.40149 26.7174 8.27052 27.6002 8.33344C28.8974 8.32545 30.194 8.39223 31.4835 8.53344V13.0334H28.8335C26.7335 13.0334 26.3335 14.0334 26.3335 15.4834V18.7001H31.3335L30.6835 23.7001H26.3335V36.6668H34.8335C35.0743 36.6668 35.3127 36.6194 35.5351 36.5272C35.7575 36.4351 35.9596 36.3 36.1299 36.1298C36.3001 35.9596 36.4351 35.7575 36.5273 35.535C36.6194 35.3126 36.6668 35.0742 36.6668 34.8334V5.16677C36.6668 4.92601 36.6194 4.68761 36.5273 4.46518C36.4351 4.24275 36.3001 4.04065 36.1299 3.87041C35.9596 3.70017 35.7575 3.56512 35.5351 3.47299C35.3127 3.38086 35.0743 3.33344 34.8335 3.33344Z" fill="#FAFAFA"/>
</svg>
