<svg width="40" height="40" viewBox="0 0 40 40" fill="none" xmlns="http://www.w3.org/2000/svg">
<path d="M34.8335 3.3335H5.16683C4.6806 3.3335 4.21428 3.52665 3.87047 3.87047C3.52665 4.21428 3.3335 4.6806 3.3335 5.16683V34.8335C3.3335 35.0743 3.38092 35.3127 3.47305 35.5351C3.56518 35.7575 3.70023 35.9596 3.87047 36.1299C4.04071 36.3001 4.24281 36.4351 4.46524 36.5273C4.68767 36.6194 4.92607 36.6668 5.16683 36.6668H21.1335V23.7502H16.8002V18.7502H21.1335V15.0002C21.0437 14.1198 21.1477 13.2304 21.438 12.3944C21.7284 11.5584 22.1981 10.7961 22.8143 10.1608C23.4304 9.52562 24.1781 9.0329 25.0049 8.71723C25.8316 8.40155 26.7174 8.27058 27.6002 8.3335C28.8974 8.32551 30.194 8.39229 31.4835 8.5335V13.0335H28.8335C26.7335 13.0335 26.3335 14.0335 26.3335 15.4835V18.7002H31.3335L30.6835 23.7002H26.3335V36.6668H34.8335C35.0743 36.6668 35.3127 36.6194 35.5351 36.5273C35.7575 36.4351 35.9596 36.3001 36.1299 36.1299C36.3001 35.9596 36.4351 35.7575 36.5273 35.5351C36.6194 35.3127 36.6668 35.0743 36.6668 34.8335V5.16683C36.6668 4.92607 36.6194 4.68767 36.5273 4.46524C36.4351 4.24281 36.3001 4.04071 36.1299 3.87047C35.9596 3.70023 35.7575 3.56518 35.5351 3.47305C35.3127 3.38092 35.0743 3.3335 34.8335 3.3335Z" fill="#FAFAFA"/>
</svg>
