<svg width="64" height="64" viewBox="0 0 64 64" fill="none" xmlns="http://www.w3.org/2000/svg">
<path d="M17.333 50.6665H7.33301C6.22901 50.6665 5.33301 49.7705 5.33301 48.6665C5.33301 47.5625 6.22901 46.6665 7.33301 46.6665H17.333C18.437 46.6665 19.333 47.5625 19.333 48.6665C19.333 49.7705 18.437 50.6665 17.333 50.6665ZM37.333 50.6665H27.9997C26.8957 50.6665 25.9997 49.7705 25.9997 48.6665C25.9997 47.5625 26.8957 46.6665 27.9997 46.6665H35.717L40.861 22.6665H12.6663C11.5623 22.6665 10.6663 21.7705 10.6663 20.6665C10.6663 19.5625 11.5623 18.6665 12.6663 18.6665H43.333C43.9383 18.6665 44.509 18.9412 44.8877 19.4078C45.269 19.8798 45.4157 20.4932 45.2877 21.0852L39.2877 49.0852C39.0903 50.0078 38.277 50.6665 37.333 50.6665Z" fill="#FCC313"/>
<path d="M59.9996 50.6665H57.3329C56.2289 50.6665 55.3329 49.7705 55.3329 48.6665C55.3329 47.5625 56.2289 46.6665 57.3329 46.6665H58.3836L59.9969 39.1332C59.8903 34.4452 56.0449 30.6665 51.3329 30.6665H43.2343L39.8049 46.6665H46.6663C47.7703 46.6665 48.6663 47.5625 48.6663 48.6665C48.6663 49.7705 47.7703 50.6665 46.6663 50.6665H37.3329C36.7276 50.6665 36.1569 50.3918 35.7783 49.9252C35.3969 49.4532 35.2503 48.8398 35.3783 48.2478L39.6636 28.2478C39.8609 27.3252 40.6743 26.6665 41.6183 26.6665H51.3329C58.3169 26.6665 63.9996 32.3492 63.9996 39.3332C63.9996 39.4745 63.9863 39.6132 63.9543 39.7518L61.9543 49.0852C61.7569 50.0078 60.9436 50.6665 59.9996 50.6665Z" fill="#FCC313"/>
<path d="M52 56C48.3253 56 45.3333 53.0107 45.3333 49.3333C45.3333 45.656 48.3253 42.6667 52 42.6667C55.6747 42.6667 58.6667 45.656 58.6667 49.3333C58.6667 53.0107 55.6747 56 52 56ZM52 46.6667C50.5307 46.6667 49.3333 47.8613 49.3333 49.3333C49.3333 50.8053 50.5307 52 52 52C53.4693 52 54.6667 50.8053 54.6667 49.3333C54.6667 47.8613 53.4693 46.6667 52 46.6667ZM22.6667 56C18.992 56 16 53.0107 16 49.3333C16 45.656 18.992 42.6667 22.6667 42.6667C26.3413 42.6667 29.3333 45.656 29.3333 49.3333C29.3333 53.0107 26.3413 56 22.6667 56ZM22.6667 46.6667C21.1973 46.6667 20 47.8613 20 49.3333C20 50.8053 21.1973 52 22.6667 52C24.136 52 25.3333 50.8053 25.3333 49.3333C25.3333 47.8613 24.136 46.6667 22.6667 46.6667ZM16.6667 28H7.33333C6.22933 28 5.33333 27.104 5.33333 26C5.33333 24.896 6.22933 24 7.33333 24H16.6667C17.7707 24 18.6667 24.896 18.6667 26C18.6667 27.104 17.7707 28 16.6667 28ZM16.6667 36H4.66667C3.56267 36 2.66667 35.104 2.66667 34C2.66667 32.896 3.56267 32 4.66667 32H16.6667C17.7707 32 18.6667 32.896 18.6667 34C18.6667 35.104 17.7707 36 16.6667 36ZM16.6667 44H2C0.896 44 0 43.104 0 42C0 40.896 0.896 40 2 40H16.6667C17.7707 40 18.6667 40.896 18.6667 42C18.6667 43.104 17.7707 44 16.6667 44Z" fill="#FCC313"/>
</svg>
