<svg width="64" height="64" viewBox="0 0 64 64" fill="none" xmlns="http://www.w3.org/2000/svg">
<path d="M17.3335 50.6665H7.3335C6.2295 50.6665 5.3335 49.7705 5.3335 48.6665C5.3335 47.5625 6.2295 46.6665 7.3335 46.6665H17.3335C18.4375 46.6665 19.3335 47.5625 19.3335 48.6665C19.3335 49.7705 18.4375 50.6665 17.3335 50.6665ZM37.3335 50.6665H28.0002C26.8962 50.6665 26.0002 49.7705 26.0002 48.6665C26.0002 47.5625 26.8962 46.6665 28.0002 46.6665H35.7175L40.8615 22.6665H12.6668C11.5628 22.6665 10.6668 21.7705 10.6668 20.6665C10.6668 19.5625 11.5628 18.6665 12.6668 18.6665H43.3335C43.9388 18.6665 44.5095 18.9412 44.8882 19.4078C45.2695 19.8798 45.4162 20.4932 45.2882 21.0852L39.2882 49.0852C39.0908 50.0078 38.2775 50.6665 37.3335 50.6665Z" fill="#FCC313"/>
<path d="M60.0001 50.6665H57.3334C56.2294 50.6665 55.3334 49.7705 55.3334 48.6665C55.3334 47.5625 56.2294 46.6665 57.3334 46.6665H58.3841L59.9974 39.1332C59.8908 34.4452 56.0454 30.6665 51.3334 30.6665H43.2348L39.8054 46.6665H46.6668C47.7708 46.6665 48.6668 47.5625 48.6668 48.6665C48.6668 49.7705 47.7708 50.6665 46.6668 50.6665H37.3334C36.7281 50.6665 36.1574 50.3918 35.7788 49.9252C35.3974 49.4532 35.2508 48.8398 35.3788 48.2478L39.6641 28.2478C39.8614 27.3252 40.6748 26.6665 41.6188 26.6665H51.3334C58.3174 26.6665 64.0001 32.3492 64.0001 39.3332C64.0001 39.4745 63.9868 39.6132 63.9548 39.7518L61.9548 49.0852C61.7574 50.0078 60.9441 50.6665 60.0001 50.6665Z" fill="#FCC313"/>
<path d="M52 56C48.3253 56 45.3333 53.0107 45.3333 49.3333C45.3333 45.656 48.3253 42.6667 52 42.6667C55.6747 42.6667 58.6667 45.656 58.6667 49.3333C58.6667 53.0107 55.6747 56 52 56ZM52 46.6667C50.5307 46.6667 49.3333 47.8613 49.3333 49.3333C49.3333 50.8053 50.5307 52 52 52C53.4693 52 54.6667 50.8053 54.6667 49.3333C54.6667 47.8613 53.4693 46.6667 52 46.6667ZM22.6667 56C18.992 56 16 53.0107 16 49.3333C16 45.656 18.992 42.6667 22.6667 42.6667C26.3413 42.6667 29.3333 45.656 29.3333 49.3333C29.3333 53.0107 26.3413 56 22.6667 56ZM22.6667 46.6667C21.1973 46.6667 20 47.8613 20 49.3333C20 50.8053 21.1973 52 22.6667 52C24.136 52 25.3333 50.8053 25.3333 49.3333C25.3333 47.8613 24.136 46.6667 22.6667 46.6667ZM16.6667 28H7.33333C6.22933 28 5.33333 27.104 5.33333 26C5.33333 24.896 6.22933 24 7.33333 24H16.6667C17.7707 24 18.6667 24.896 18.6667 26C18.6667 27.104 17.7707 28 16.6667 28ZM16.6667 36H4.66667C3.56267 36 2.66667 35.104 2.66667 34C2.66667 32.896 3.56267 32 4.66667 32H16.6667C17.7707 32 18.6667 32.896 18.6667 34C18.6667 35.104 17.7707 36 16.6667 36ZM16.6667 44H2C0.896 44 0 43.104 0 42C0 40.896 0.896 40 2 40H16.6667C17.7707 40 18.6667 40.896 18.6667 42C18.6667 43.104 17.7707 44 16.6667 44Z" fill="#FCC313"/>
</svg>
