<svg width="40" height="40" viewBox="0 0 40 40" fill="none" xmlns="http://www.w3.org/2000/svg">
<path d="M28.9007 9.10016C28.5051 9.10016 28.1184 9.21746 27.7895 9.43722C27.4606 9.65699 27.2043 9.96934 27.0529 10.3348C26.9015 10.7002 26.8619 11.1024 26.9391 11.4903C27.0163 11.8783 27.2067 12.2347 27.4864 12.5144C27.7661 12.7941 28.1225 12.9846 28.5105 13.0617C28.8984 13.1389 29.3006 13.0993 29.666 12.9479C30.0315 12.7965 30.3438 12.5402 30.5636 12.2113C30.7834 11.8824 30.9007 11.4957 30.9007 11.1002C30.9007 10.5697 30.6899 10.061 30.3149 9.68595C29.9398 9.31088 29.4311 9.10016 28.9007 9.10016ZM36.5673 13.1335C36.5349 11.7507 36.2759 10.3825 35.8007 9.0835C35.3769 7.97205 34.7173 6.96563 33.8673 6.1335C33.042 5.27921 32.0333 4.62379 30.9173 4.21683C29.6217 3.7271 28.2521 3.46218 26.8673 3.4335C25.1007 3.3335 24.534 3.3335 20.0007 3.3335C15.4673 3.3335 14.9007 3.3335 13.134 3.4335C11.7492 3.46218 10.3796 3.7271 9.08398 4.21683C7.97011 4.62791 6.96221 5.28276 6.13398 6.1335C5.27969 6.95879 4.62428 7.96756 4.21732 9.0835C3.72759 10.3791 3.46267 11.7488 3.43398 13.1335C3.33398 14.9002 3.33398 15.4668 3.33398 20.0002C3.33398 24.5335 3.33398 25.1002 3.43398 26.8668C3.46267 28.2516 3.72759 29.6213 4.21732 30.9168C4.62428 32.0328 5.27969 33.0415 6.13398 33.8668C6.96221 34.7176 7.97011 35.3724 9.08398 35.7835C10.3796 36.2732 11.7492 36.5381 13.134 36.5668C14.9007 36.6668 15.4673 36.6668 20.0007 36.6668C24.534 36.6668 25.1007 36.6668 26.8673 36.5668C28.2521 36.5381 29.6217 36.2732 30.9173 35.7835C32.0333 35.3765 33.042 34.7211 33.8673 33.8668C34.7211 33.0378 35.3812 32.0305 35.8007 30.9168C36.2759 29.6178 36.5349 28.2497 36.5673 26.8668C36.5673 25.1002 36.6673 24.5335 36.6673 20.0002C36.6673 15.4668 36.6673 14.9002 36.5673 13.1335ZM33.5673 26.6668C33.5552 27.7248 33.3636 28.773 33.0007 29.7668C32.7345 30.4922 32.3071 31.1475 31.7507 31.6835C31.2101 32.2343 30.556 32.6609 29.834 32.9335C28.8402 33.2964 27.7919 33.488 26.734 33.5002C25.0673 33.5835 24.4507 33.6002 20.0673 33.6002C15.684 33.6002 15.0673 33.6002 13.4007 33.5002C12.3021 33.5207 11.2083 33.3516 10.1673 33.0002C9.47695 32.7136 8.85291 32.2881 8.33398 31.7502C7.7808 31.2147 7.35872 30.5588 7.10065 29.8335C6.69375 28.8254 6.46806 27.7534 6.43398 26.6668C6.43398 25.0002 6.33398 24.3835 6.33398 20.0002C6.33398 15.6168 6.33398 15.0002 6.43398 13.3335C6.44146 12.2519 6.6389 11.1801 7.01732 10.1668C7.31073 9.46335 7.76109 8.83626 8.33398 8.3335C8.84034 7.76044 9.46613 7.30532 10.1673 7.00016C11.1832 6.63357 12.254 6.44196 13.334 6.4335C15.0007 6.4335 15.6173 6.3335 20.0007 6.3335C24.384 6.3335 25.0007 6.3335 26.6673 6.4335C27.7253 6.44563 28.7735 6.63724 29.7673 7.00016C30.5247 7.28125 31.2045 7.73824 31.7507 8.3335C32.2968 8.84546 32.7236 9.47138 33.0007 10.1668C33.3711 11.1817 33.5628 12.2531 33.5673 13.3335C33.6507 15.0002 33.6673 15.6168 33.6673 20.0002C33.6673 24.3835 33.6507 25.0002 33.5673 26.6668ZM20.0007 11.4502C18.3103 11.4535 16.6589 11.9577 15.2551 12.8992C13.8512 13.8407 12.7579 15.1772 12.1134 16.7398C11.4688 18.3023 11.3019 20.0209 11.6336 21.6784C11.9654 23.3358 12.781 24.8577 13.9774 26.0518C15.1738 27.2459 16.6973 28.0585 18.3554 28.3871C20.0135 28.7156 21.7318 28.5453 23.2931 27.8977C24.8544 27.2501 26.1888 26.1542 27.1275 24.7486C28.0663 23.3429 28.5673 21.6905 28.5673 20.0002C28.5695 18.8753 28.3493 17.7612 27.9194 16.7218C27.4894 15.6823 26.8582 14.7382 26.0621 13.9436C25.266 13.149 24.3206 12.5196 23.2803 12.0917C22.2401 11.6638 21.1255 11.4458 20.0007 11.4502ZM20.0007 25.5502C18.903 25.5502 17.8299 25.2247 16.9172 24.6148C16.0045 24.005 15.2932 23.1382 14.8731 22.1241C14.4531 21.1099 14.3431 19.994 14.5573 18.9174C14.7714 17.8408 15.3 16.8519 16.0762 16.0757C16.8524 15.2995 17.8413 14.771 18.9179 14.5568C19.9945 14.3427 21.1104 14.4526 22.1245 14.8726C23.1387 15.2927 24.0055 16.0041 24.6153 16.9167C25.2252 17.8294 25.5507 18.9025 25.5507 20.0002C25.5507 20.729 25.4071 21.4507 25.1282 22.1241C24.8493 22.7974 24.4405 23.4092 23.9251 23.9246C23.4097 24.44 22.7979 24.8488 22.1245 25.1277C21.4512 25.4066 20.7295 25.5502 20.0007 25.5502Z" fill="#FAFAFA"/>
</svg>
