<svg width="40" height="40" viewBox="0 0 40 40" fill="none" xmlns="http://www.w3.org/2000/svg">
<path d="M28.9002 9.1001C28.5046 9.1001 28.1179 9.2174 27.789 9.43716C27.4601 9.65693 27.2038 9.96928 27.0524 10.3347C26.901 10.7002 26.8614 11.1023 26.9386 11.4903C27.0158 11.8782 27.2062 12.2346 27.486 12.5143C27.7657 12.794 28.122 12.9845 28.51 13.0617C28.8979 13.1388 29.3001 13.0992 29.6655 12.9479C30.031 12.7965 30.3433 12.5401 30.5631 12.2112C30.7829 11.8823 30.9002 11.4957 30.9002 11.1001C30.9002 10.5697 30.6894 10.061 30.3144 9.68589C29.9393 9.31082 29.4306 9.1001 28.9002 9.1001ZM36.5668 13.1334C36.5344 11.7506 36.2754 10.3824 35.8002 9.08344C35.3764 7.97199 34.7168 6.96557 33.8668 6.13344C33.0415 5.27915 32.0328 4.62373 30.9168 4.21677C29.6213 3.72704 28.2516 3.46212 26.8668 3.43343C25.1002 3.33343 24.5335 3.33344 20.0002 3.33344C15.4668 3.33344 14.9002 3.33343 13.1335 3.43343C11.7488 3.46212 10.3791 3.72704 9.0835 4.21677C7.96962 4.62785 6.96172 5.2827 6.1335 6.13344C5.27921 6.95873 4.62379 7.9675 4.21683 9.08344C3.7271 10.379 3.46218 11.7487 3.4335 13.1334C3.3335 14.9001 3.3335 15.4668 3.3335 20.0001C3.3335 24.5334 3.3335 25.1001 3.4335 26.8668C3.46218 28.2515 3.7271 29.6212 4.21683 30.9168C4.62379 32.0327 5.27921 33.0415 6.1335 33.8668C6.96172 34.7175 7.96962 35.3724 9.0835 35.7834C10.3791 36.2732 11.7488 36.5381 13.1335 36.5668C14.9002 36.6668 15.4668 36.6668 20.0002 36.6668C24.5335 36.6668 25.1002 36.6668 26.8668 36.5668C28.2516 36.5381 29.6213 36.2732 30.9168 35.7834C32.0328 35.3765 33.0415 34.7211 33.8668 33.8668C34.7206 33.0377 35.3807 32.0304 35.8002 30.9168C36.2754 29.6178 36.5344 28.2496 36.5668 26.8668C36.5668 25.1001 36.6668 24.5334 36.6668 20.0001C36.6668 15.4668 36.6668 14.9001 36.5668 13.1334ZM33.5668 26.6668C33.5547 27.7247 33.3631 28.7729 33.0002 29.7668C32.7341 30.4921 32.3066 31.1475 31.7502 31.6834C31.2096 32.2343 30.5555 32.6608 29.8335 32.9334C28.8397 33.2964 27.7915 33.488 26.7335 33.5001C25.0668 33.5834 24.4502 33.6001 20.0668 33.6001C15.6835 33.6001 15.0668 33.6001 13.4002 33.5001C12.3016 33.5207 11.2078 33.3515 10.1668 33.0001C9.47647 32.7136 8.85242 32.2881 8.3335 31.7501C7.78031 31.2147 7.35823 30.5588 7.10016 29.8334C6.69326 28.8254 6.46757 27.7533 6.4335 26.6668C6.4335 25.0001 6.3335 24.3834 6.3335 20.0001C6.3335 15.6168 6.3335 15.0001 6.4335 13.3334C6.44097 12.2519 6.63841 11.18 7.01683 10.1668C7.31024 9.46329 7.7606 8.8362 8.3335 8.33344C8.83985 7.76038 9.46564 7.30526 10.1668 7.0001C11.1827 6.63351 12.2535 6.4419 13.3335 6.43343C15.0002 6.43343 15.6168 6.33344 20.0002 6.33344C24.3835 6.33344 25.0002 6.33344 26.6668 6.43343C27.7248 6.44557 28.773 6.63718 29.7668 7.0001C30.5242 7.28119 31.204 7.73818 31.7502 8.33344C32.2963 8.8454 32.7231 9.47132 33.0002 10.1668C33.3706 11.1817 33.5623 12.2531 33.5668 13.3334C33.6502 15.0001 33.6668 15.6168 33.6668 20.0001C33.6668 24.3834 33.6502 25.0001 33.5668 26.6668ZM20.0002 11.4501C18.3098 11.4534 16.6584 11.9576 15.2546 12.8991C13.8507 13.8406 12.7575 15.1771 12.1129 16.7397C11.4683 18.3023 11.3014 20.0209 11.6332 21.6783C11.9649 23.3358 12.7806 24.8577 13.977 26.0517C15.1734 27.2458 16.6968 28.0585 18.3549 28.387C20.013 28.7156 21.7313 28.5453 23.2926 27.8977C24.8539 27.25 26.1883 26.1542 27.127 24.7485C28.0658 23.3428 28.5668 21.6904 28.5668 20.0001C28.569 18.8753 28.3488 17.7611 27.9189 16.7217C27.489 15.6823 26.8578 14.7381 26.0616 13.9435C25.2655 13.1489 24.3201 12.5196 23.2798 12.0917C22.2396 11.6637 21.125 11.4457 20.0002 11.4501ZM20.0002 25.5501C18.9025 25.5501 17.8294 25.2246 16.9167 24.6148C16.0041 24.0049 15.2927 23.1381 14.8726 22.124C14.4526 21.1099 14.3427 19.9939 14.5568 18.9174C14.771 17.8408 15.2995 16.8518 16.0757 16.0757C16.8519 15.2995 17.8408 14.7709 18.9174 14.5567C19.994 14.3426 21.1099 14.4525 22.1241 14.8726C23.1382 15.2926 24.005 16.004 24.6148 16.9167C25.2247 17.8294 25.5502 18.9024 25.5502 20.0001C25.5502 20.7289 25.4066 21.4506 25.1277 22.124C24.8488 22.7974 24.44 23.4092 23.9246 23.9245C23.4092 24.4399 22.7974 24.8487 22.1241 25.1276C21.4507 25.4065 20.729 25.5501 20.0002 25.5501Z" fill="#FAFAFA"/>
</svg>
