<svg width="40" height="40" viewBox="0 0 40 40" fill="none" xmlns="http://www.w3.org/2000/svg">
<path d="M28.8997 9.10016C28.5041 9.10016 28.1174 9.21746 27.7885 9.43722C27.4596 9.65699 27.2033 9.96934 27.0519 10.3348C26.9005 10.7002 26.8609 11.1024 26.9381 11.4903C27.0153 11.8783 27.2058 12.2347 27.4855 12.5144C27.7652 12.7941 28.1215 12.9846 28.5095 13.0617C28.8975 13.1389 29.2996 13.0993 29.665 12.9479C30.0305 12.7965 30.3429 12.5402 30.5626 12.2113C30.7824 11.8824 30.8997 11.4957 30.8997 11.1002C30.8997 10.5697 30.689 10.061 30.3139 9.68595C29.9388 9.31088 29.4301 9.10016 28.8997 9.10016ZM36.5663 13.1335C36.5339 11.7507 36.2749 10.3825 35.7997 9.0835C35.3759 7.97205 34.7163 6.96563 33.8663 6.1335C33.041 5.27921 32.0323 4.62379 30.9163 4.21683C29.6208 3.7271 28.2511 3.46218 26.8663 3.4335C25.0997 3.3335 24.533 3.3335 19.9997 3.3335C15.4663 3.3335 14.8997 3.3335 13.133 3.4335C11.7483 3.46218 10.3786 3.7271 9.08301 4.21683C7.96914 4.62791 6.96123 5.28276 6.13301 6.1335C5.27872 6.95879 4.6233 7.96756 4.21634 9.0835C3.72661 10.3791 3.46169 11.7488 3.43301 13.1335C3.33301 14.9002 3.33301 15.4668 3.33301 20.0002C3.33301 24.5335 3.33301 25.1002 3.43301 26.8668C3.46169 28.2516 3.72661 29.6213 4.21634 30.9168C4.6233 32.0328 5.27872 33.0415 6.13301 33.8668C6.96123 34.7176 7.96914 35.3724 9.08301 35.7835C10.3786 36.2732 11.7483 36.5381 13.133 36.5668C14.8997 36.6668 15.4663 36.6668 19.9997 36.6668C24.533 36.6668 25.0997 36.6668 26.8663 36.5668C28.2511 36.5381 29.6208 36.2732 30.9163 35.7835C32.0323 35.3765 33.041 34.7211 33.8663 33.8668C34.7201 33.0378 35.3802 32.0305 35.7997 30.9168C36.2749 29.6178 36.5339 28.2497 36.5663 26.8668C36.5663 25.1002 36.6663 24.5335 36.6663 20.0002C36.6663 15.4668 36.6663 14.9002 36.5663 13.1335ZM33.5663 26.6668C33.5542 27.7248 33.3626 28.773 32.9997 29.7668C32.7336 30.4922 32.3061 31.1475 31.7497 31.6835C31.2091 32.2343 30.5551 32.6609 29.833 32.9335C28.8392 33.2964 27.791 33.488 26.733 33.5002C25.0663 33.5835 24.4497 33.6002 20.0663 33.6002C15.683 33.6002 15.0663 33.6002 13.3997 33.5002C12.3012 33.5207 11.2073 33.3516 10.1663 33.0002C9.47598 32.7136 8.85193 32.2881 8.33301 31.7502C7.77982 31.2147 7.35775 30.5588 7.09967 29.8335C6.69277 28.8254 6.46708 27.7534 6.43301 26.6668C6.43301 25.0002 6.33301 24.3835 6.33301 20.0002C6.33301 15.6168 6.33301 15.0002 6.43301 13.3335C6.44048 12.2519 6.63792 11.1801 7.01634 10.1668C7.30975 9.46335 7.76012 8.83626 8.33301 8.3335C8.83936 7.76044 9.46515 7.30532 10.1663 7.00016C11.1823 6.63357 12.253 6.44196 13.333 6.4335C14.9997 6.4335 15.6163 6.3335 19.9997 6.3335C24.383 6.3335 24.9997 6.3335 26.6663 6.4335C27.7243 6.44563 28.7725 6.63724 29.7663 7.00016C30.5237 7.28125 31.2035 7.73824 31.7497 8.3335C32.2958 8.84546 32.7226 9.47138 32.9997 10.1668C33.3701 11.1817 33.5618 12.2531 33.5663 13.3335C33.6497 15.0002 33.6663 15.6168 33.6663 20.0002C33.6663 24.3835 33.6497 25.0002 33.5663 26.6668ZM19.9997 11.4502C18.3094 11.4535 16.6579 11.9577 15.2541 12.8992C13.8503 13.8407 12.757 15.1772 12.1124 16.7398C11.4678 18.3023 11.3009 20.0209 11.6327 21.6784C11.9644 23.3358 12.7801 24.8577 13.9765 26.0518C15.1729 27.2459 16.6964 28.0585 18.3544 28.3871C20.0125 28.7156 21.7308 28.5453 23.2921 27.8977C24.8535 27.2501 26.1878 26.1542 27.1266 24.7486C28.0653 23.3429 28.5663 21.6905 28.5663 20.0002C28.5685 18.8753 28.3483 17.7612 27.9184 16.7218C27.4885 15.6823 26.8573 14.7382 26.0611 13.9436C25.265 13.149 24.3196 12.5196 23.2793 12.0917C22.2391 11.6638 21.1245 11.4458 19.9997 11.4502ZM19.9997 25.5502C18.902 25.5502 17.829 25.2247 16.9163 24.6148C16.0036 24.005 15.2922 23.1382 14.8721 22.1241C14.4521 21.1099 14.3422 19.994 14.5563 18.9174C14.7705 17.8408 15.2991 16.8519 16.0752 16.0757C16.8514 15.2995 17.8403 14.771 18.9169 14.5568C19.9935 14.3427 21.1094 14.4526 22.1236 14.8726C23.1377 15.2927 24.0045 16.0041 24.6143 16.9167C25.2242 17.8294 25.5497 18.9025 25.5497 20.0002C25.5497 20.729 25.4061 21.4507 25.1272 22.1241C24.8483 22.7974 24.4395 23.4092 23.9241 23.9246C23.4088 24.44 22.7969 24.8488 22.1236 25.1277C21.4502 25.4066 20.7285 25.5502 19.9997 25.5502Z" fill="#FAFAFA"/>
</svg>
