<svg width="32" height="32" viewBox="0 0 32 32" fill="none" xmlns="http://www.w3.org/2000/svg">
<path d="M15.9997 2.6665C13.1707 2.6665 10.4576 3.79031 8.4572 5.7907C6.45681 7.79109 5.33301 10.5042 5.33301 13.3332C5.33301 20.5332 14.733 28.6665 15.133 29.0132C15.3745 29.2197 15.6819 29.3333 15.9997 29.3333C16.3175 29.3333 16.6248 29.2197 16.8663 29.0132C17.333 28.6665 26.6663 20.5332 26.6663 13.3332C26.6663 10.5042 25.5425 7.79109 23.5421 5.7907C21.5418 3.79031 18.8286 2.6665 15.9997 2.6665ZM15.9997 26.1998C13.1597 23.5332 7.99967 17.7865 7.99967 13.3332C7.99967 11.2114 8.84253 9.17661 10.3428 7.67632C11.8431 6.17603 13.8779 5.33317 15.9997 5.33317C18.1214 5.33317 20.1562 6.17603 21.6565 7.67632C23.1568 9.17661 23.9997 11.2114 23.9997 13.3332C23.9997 17.7865 18.8397 23.5465 15.9997 26.1998ZM15.9997 7.99984C14.9448 7.99984 13.9137 8.31263 13.0366 8.89867C12.1596 9.4847 11.476 10.3177 11.0723 11.2922C10.6686 12.2667 10.563 13.3391 10.7688 14.3737C10.9746 15.4082 11.4826 16.3585 12.2284 17.1044C12.9743 17.8503 13.9246 18.3582 14.9592 18.564C15.9938 18.7698 17.0661 18.6642 18.0407 18.2605C19.0152 17.8569 19.8481 17.1733 20.4342 16.2962C21.0202 15.4191 21.333 14.388 21.333 13.3332C21.333 11.9187 20.7711 10.5621 19.7709 9.56193C18.7707 8.56174 17.4142 7.99984 15.9997 7.99984ZM15.9997 15.9998C15.4723 15.9998 14.9567 15.8434 14.5182 15.5504C14.0796 15.2574 13.7378 14.8409 13.536 14.3537C13.3342 13.8664 13.2814 13.3302 13.3842 12.8129C13.4871 12.2956 13.7411 11.8205 14.1141 11.4476C14.487 11.0746 14.9622 10.8206 15.4794 10.7177C15.9967 10.6148 16.5329 10.6677 17.0202 10.8695C17.5074 11.0713 17.9239 11.4131 18.2169 11.8517C18.5099 12.2902 18.6663 12.8058 18.6663 13.3332C18.6663 14.0404 18.3854 14.7187 17.8853 15.2188C17.3852 15.7189 16.7069 15.9998 15.9997 15.9998Z" fill="black"/>
</svg>
