<svg width="96" height="96" viewBox="0 0 96 96" fill="none" xmlns="http://www.w3.org/2000/svg">
<path d="M50.3395 69.1013H22.1532C20.1124 69.1013 18.4609 70.7527 18.4609 72.7936C18.4609 74.8345 20.1124 76.4859 22.1532 76.4859H50.3395C52.3804 76.4859 54.0318 74.8345 54.0318 72.7936C54.0318 70.7527 52.3804 69.1013 50.3395 69.1013ZM50.3431 54.159C43.6123 54.154 49.4349 54.1489 22.1532 54.1914C20.1124 54.1914 18.4609 55.8429 18.4609 57.8837C18.4609 59.9246 20.1124 61.576 22.1532 61.576C22.5237 61.5756 52.366 61.5453 50.3395 61.5436C52.3768 61.5436 54.0318 59.8922 54.0318 57.8549C54.0318 55.814 52.3804 54.159 50.3431 54.159ZM47.5343 19.4751L24.9405 19.5003C21.3672 19.5075 18.4609 22.421 18.4609 25.9907V39.1914C18.4609 42.772 21.3708 45.6818 24.9513 45.6818H47.5415C51.122 45.6818 54.0318 42.772 54.0318 39.1914V25.9655C54.0318 22.385 51.1184 19.4751 47.5343 19.4751ZM46.6472 38.2972H25.8456V26.885L46.6472 26.8597V38.2972Z" fill="black"/>
<path d="M92.3068 20.8327C92.3068 12.3447 85.939 5.30989 77.8116 4.82311C75.5397 4.67484 23.3777 4.79328 19.1385 4.79426C10.6217 4.79426 3.69141 11.7246 3.69141 20.2414V84.1861C3.69141 88.0839 6.86088 91.2534 10.7587 91.2534H61.7335C65.6313 91.2534 68.8008 88.0839 68.8008 84.1861V51.15H85.2395C89.1373 51.15 92.3068 47.9806 92.3068 44.0827V20.8327ZM61.4162 83.8688H11.076V20.2414C11.076 15.7955 14.6926 12.1789 19.1385 12.1789C24.4611 12.1741 10.6833 12.1864 63.7022 12.1392C62.2197 14.5228 61.4162 17.6726 61.4162 20.2414V47.4577V83.8688ZM84.9222 43.7654H68.8008V20.2414C68.8008 15.3021 73.073 11.9253 77.3717 12.1933C81.5328 12.4457 84.9222 16.3183 84.9222 20.8327V43.7654Z" fill="black"/>
</svg>
