<svg width="32" height="32" viewBox="0 0 32 32" fill="none" xmlns="http://www.w3.org/2000/svg">
<path d="M3.4585 25.2185L15.4585 30.5518H15.4665C15.6342 30.6274 15.816 30.6664 15.9998 30.6664C16.1837 30.6664 16.3655 30.6274 16.5332 30.5518H16.5438L28.5438 25.2185C28.7791 25.1134 28.9789 24.9423 29.1189 24.726C29.259 24.5098 29.3334 24.2575 29.3332 23.9998V7.99984C29.3268 7.74332 29.2495 7.49359 29.1096 7.27843C28.9698 7.06328 28.773 6.89114 28.5412 6.78118L16.5412 1.44784C16.3707 1.37213 16.1863 1.33301 15.9998 1.33301C15.8133 1.33301 15.6289 1.37213 15.4585 1.44784L3.4585 6.78118C3.22675 6.89126 3.03005 7.06343 2.89024 7.27856C2.75043 7.49369 2.67299 7.74336 2.6665 7.99984V23.9998C2.66647 24.2578 2.74128 24.5103 2.88186 24.7266C3.02243 24.9429 3.22275 25.1138 3.4585 25.2185ZM5.33317 10.0518L14.6665 14.1998V27.2812L5.33317 23.1332V10.0518ZM26.6665 23.1332L17.3332 27.2812V14.1998L26.6665 10.0518V23.1332ZM15.9998 4.12518L24.7172 7.99984L15.9998 11.8745L7.2825 7.99984L15.9998 4.12518Z" fill="#FCC313"/>
</svg>
