<svg width="32" height="32" viewBox="0 0 32 32" fill="none" xmlns="http://www.w3.org/2000/svg">
<path d="M27.2493 9.47263C27.0191 9.21452 26.7632 8.98052 26.4856 8.77423C26.5996 7.88104 26.5208 6.97378 26.2545 6.11361C25.9882 5.25344 25.5407 4.46033 24.942 3.78774C23.4967 2.15883 21.0332 1.33331 17.6191 1.33331H9.33396C8.7354 1.33491 8.1569 1.54924 7.7018 1.93804C7.2467 2.32683 6.94465 2.86475 6.84958 3.45571L3.39645 25.3307C3.3476 25.6239 3.36327 25.9243 3.44239 26.2108C3.5215 26.4973 3.66216 26.7631 3.85454 26.9897C4.04692 27.2163 4.2864 27.3982 4.5563 27.5228C4.82619 27.6474 5.12 27.7115 5.41725 27.7109H8.96937L8.86004 28.4049C8.81582 28.6841 8.83265 28.9695 8.90934 29.2416C8.98604 29.5136 9.12079 29.7658 9.30431 29.9808C9.48784 30.1957 9.71577 30.3683 9.97242 30.4868C10.2291 30.6052 10.5083 30.6665 10.791 30.6666H15.1035C15.6621 30.6711 16.2041 30.4763 16.632 30.1171C17.0599 29.7579 17.3457 29.258 17.4382 28.707L18.2923 23.332L18.3067 23.2591H18.7051C24.0814 23.2591 27.4395 20.6015 28.4186 15.5755C28.7173 14.538 28.7671 13.4446 28.564 12.3842C28.3608 11.3238 27.9104 10.3263 27.2493 9.47263ZM10.4564 18.2721L9.50372 24.3192L9.38864 25.0442H6.14125L9.46286 3.99998H17.6191C20.1998 3.99998 22.0423 4.53905 22.942 5.55206C23.3667 6.04585 23.6629 6.63687 23.8043 7.27264C23.9457 7.90841 23.9279 8.56926 23.7526 9.19651L23.7278 9.34617C23.7116 9.44814 23.6968 9.54775 23.6699 9.67446C23.4128 11.5797 22.4606 13.3227 20.9964 14.5685C19.3526 15.7116 17.3715 16.2673 15.373 16.1458H12.942C12.3417 16.1438 11.7607 16.3573 11.3045 16.7476C10.8483 17.1378 10.5474 17.6788 10.4564 18.2721ZM25.8014 15.0651C25.067 18.8359 22.8118 20.5924 18.705 20.5924H18.0605C17.5013 20.5881 16.9589 20.7835 16.5309 21.1434C16.1029 21.5034 15.8174 22.0043 15.7259 22.556L14.86 27.9883L11.623 28L12.2606 23.9548L13.0754 18.8177H15.3678C15.5769 18.8177 15.7617 18.7863 15.9653 18.7791C16.4437 18.7626 16.9208 18.7442 17.3689 18.6886C17.6425 18.6545 17.8937 18.5923 18.156 18.5437C18.5193 18.4765 18.8829 18.4101 19.2241 18.3153C19.4779 18.2447 19.7148 18.1537 19.9562 18.0678C20.2752 17.9546 20.5893 17.8358 20.8863 17.6963C21.1103 17.5908 21.3237 17.4735 21.535 17.3532C21.8164 17.1939 22.0889 17.0195 22.3515 16.831C22.5412 16.6942 22.7274 16.5538 22.9049 16.403C23.1564 16.1861 23.3955 15.9551 23.6208 15.7111C23.7714 15.5503 23.9257 15.3943 24.0652 15.2214C24.2966 14.9265 24.5103 14.6181 24.7052 14.2979C24.8072 14.135 24.9202 13.9842 25.014 13.8128C25.2841 13.3186 25.5162 12.8045 25.7084 12.2751C25.7199 12.2433 25.7364 12.2164 25.7477 12.1844C25.7531 12.1695 25.7609 12.157 25.7662 12.142C26.0304 13.0969 26.0425 14.104 25.8014 15.0651Z" fill="#383838"/>
</svg>
