<svg width="240" height="240" viewBox="0 0 240 240" fill="none" xmlns="http://www.w3.org/2000/svg">
<path d="M208.801 173.402L172.501 136.802C171.804 136.099 170.975 135.541 170.061 135.16C169.147 134.779 168.167 134.583 167.176 134.583C166.186 134.583 165.206 134.779 164.292 135.16C163.378 135.541 162.549 136.099 161.851 136.802C160.455 138.207 159.67 140.108 159.67 142.089C159.67 144.07 160.455 145.971 161.851 147.377L198.526 184.052C199.122 184.64 199.595 185.34 199.917 186.113C200.239 186.886 200.403 187.715 200.401 188.552C200.389 190.239 199.716 191.855 198.526 193.052C197.313 194.207 195.702 194.852 194.026 194.852C192.351 194.852 190.74 194.207 189.526 193.052L152.176 156.002C150.742 154.773 148.896 154.131 147.009 154.204C145.121 154.277 143.33 155.059 141.995 156.395C140.659 157.731 139.876 159.521 139.804 161.409C139.731 163.296 140.373 165.142 141.601 166.577L178.576 203.627C180.439 206.015 182.787 207.98 185.467 209.392C188.146 210.804 191.095 211.631 194.118 211.817C197.14 212.004 200.168 211.545 203.001 210.473C205.833 209.401 208.405 207.739 210.547 205.597C212.689 203.456 214.351 200.883 215.423 198.051C216.495 195.219 216.953 192.191 216.767 189.168C216.581 186.145 215.754 183.196 214.342 180.517C212.93 177.838 210.965 175.489 208.576 173.627L208.801 173.402ZM146.776 43.0516C137.036 33.335 124.634 26.7232 111.138 24.0515C97.6413 21.3798 83.6558 22.7681 70.948 28.0409C58.2402 33.3138 47.3803 42.2347 39.7401 53.6767C32.0999 65.1186 28.0222 78.5683 28.0222 92.3266C28.0222 106.085 32.0999 119.535 39.7401 130.977C47.3803 142.418 58.2402 151.339 70.948 156.612C83.6558 161.885 97.6413 163.273 111.138 160.602C124.634 157.93 137.036 151.318 146.776 141.602C153.249 135.131 158.383 127.45 161.885 118.995C165.388 110.54 167.191 101.478 167.191 92.3266C167.191 83.175 165.388 74.113 161.885 65.6583C158.383 57.2036 153.249 49.5218 146.776 43.0516ZM58.8014 130.952C51.166 123.301 45.9696 113.558 43.8689 102.956C41.7682 92.3526 42.8574 81.365 46.9988 71.3808C51.1403 61.3967 58.1482 52.8642 67.1371 46.8613C76.1259 40.8584 86.6924 37.6545 97.5014 37.6545C108.31 37.6545 118.877 40.8584 127.866 46.8613C136.855 52.8642 143.863 61.3967 148.004 71.3808C152.145 81.365 153.235 92.3526 151.134 102.956C149.033 113.558 143.837 123.301 136.201 130.952C125.935 141.211 112.015 146.973 97.5014 146.973C82.9877 146.973 69.0679 141.211 58.8014 130.952Z" fill="#383838"/>
<path d="M97.5 116.326C99.4891 116.326 101.397 115.536 102.803 114.13C104.21 112.723 105 110.816 105 108.826V57.7515C105 55.7623 104.21 53.8547 102.803 52.4482C101.397 51.0416 99.4891 50.2515 97.5 50.2515C95.5109 50.2515 93.6032 51.0416 92.1967 52.4482C90.7902 53.8547 90 55.7623 90 57.7515V108.826C90 110.816 90.7902 112.723 92.1967 114.13C93.6032 115.536 95.5109 116.326 97.5 116.326Z" fill="#FCC313"/>
<path d="M97.4976 137.624C102.095 137.624 105.823 133.897 105.823 129.299C105.823 124.701 102.095 120.974 97.4976 120.974C92.8998 120.974 89.1726 124.701 89.1726 129.299C89.1726 133.897 92.8998 137.624 97.4976 137.624Z" fill="#FCC313"/>
</svg>
