<svg width="32" height="32" viewBox="0 0 32 32" fill="none" xmlns="http://www.w3.org/2000/svg">
<path d="M25.334 9.33317H21.334V7.99984C21.334 6.58535 20.7721 5.2288 19.7719 4.2286C18.7717 3.22841 17.4151 2.6665 16.0007 2.6665C14.5862 2.6665 13.2296 3.22841 12.2294 4.2286C11.2292 5.2288 10.6673 6.58535 10.6673 7.99984V9.33317H6.66732C6.3137 9.33317 5.97456 9.47365 5.72451 9.72369C5.47446 9.97374 5.33398 10.3129 5.33398 10.6665L5.33398 25.3332C5.33398 26.394 5.75541 27.4115 6.50556 28.1616C7.2557 28.9117 8.27312 29.3332 9.33398 29.3332H22.6673C23.7282 29.3332 24.7456 28.9117 25.4957 28.1616C26.2459 27.4115 26.6673 26.394 26.6673 25.3332V10.6665C26.6673 10.3129 26.5268 9.97374 26.2768 9.72369C26.0267 9.47365 25.6876 9.33317 25.334 9.33317ZM13.334 7.99984C13.334 7.29259 13.6149 6.61432 14.115 6.11422C14.6151 5.61412 15.2934 5.33317 16.0007 5.33317C16.7079 5.33317 17.3862 5.61412 17.8863 6.11422C18.3864 6.61432 18.6673 7.29259 18.6673 7.99984V9.33317H13.334V7.99984ZM24.0007 25.3332C24.0007 25.6868 23.8602 26.0259 23.6101 26.276C23.3601 26.526 23.0209 26.6665 22.6673 26.6665H9.33398C8.98036 26.6665 8.64122 26.526 8.39118 26.276C8.14113 26.0259 8.00065 25.6868 8.00065 25.3332L8.00065 11.9998H10.6673V13.3332C10.6673 13.6868 10.8078 14.0259 11.0578 14.276C11.3079 14.526 11.647 14.6665 12.0007 14.6665C12.3543 14.6665 12.6934 14.526 12.9435 14.276C13.1935 14.0259 13.334 13.6868 13.334 13.3332V11.9998H18.6673V13.3332C18.6673 13.6868 18.8078 14.0259 19.0578 14.276C19.3079 14.526 19.647 14.6665 20.0007 14.6665C20.3543 14.6665 20.6934 14.526 20.9435 14.276C21.1935 14.0259 21.334 13.6868 21.334 13.3332V11.9998L24.0007 11.9998V25.3332Z" fill="#383838"/>
</svg>
