<svg width="32" height="32" viewBox="0 0 32 32" fill="none" xmlns="http://www.w3.org/2000/svg">
<path d="M25.333 9.33317H21.333V7.99984C21.333 6.58535 20.7711 5.2288 19.7709 4.2286C18.7707 3.22841 17.4142 2.6665 15.9997 2.6665C14.5852 2.6665 13.2286 3.22841 12.2284 4.2286C11.2282 5.2288 10.6663 6.58535 10.6663 7.99984V9.33317H6.66634C6.31272 9.33317 5.97358 9.47365 5.72353 9.72369C5.47348 9.97374 5.33301 10.3129 5.33301 10.6665L5.33301 25.3332C5.33301 26.394 5.75444 27.4115 6.50458 28.1616C7.25473 28.9117 8.27214 29.3332 9.33301 29.3332H22.6663C23.7272 29.3332 24.7446 28.9117 25.4948 28.1616C26.2449 27.4115 26.6663 26.394 26.6663 25.3332V10.6665C26.6663 10.3129 26.5259 9.97374 26.2758 9.72369C26.0258 9.47365 25.6866 9.33317 25.333 9.33317ZM13.333 7.99984C13.333 7.29259 13.614 6.61432 14.1141 6.11422C14.6142 5.61412 15.2924 5.33317 15.9997 5.33317C16.7069 5.33317 17.3852 5.61412 17.8853 6.11422C18.3854 6.61432 18.6663 7.29259 18.6663 7.99984V9.33317H13.333V7.99984ZM23.9997 25.3332C23.9997 25.6868 23.8592 26.0259 23.6092 26.276C23.3591 26.526 23.02 26.6665 22.6663 26.6665H9.33301C8.97939 26.6665 8.64025 26.526 8.3902 26.276C8.14015 26.0259 7.99967 25.6868 7.99967 25.3332L7.99967 11.9998H10.6663V13.3332C10.6663 13.6868 10.8068 14.0259 11.0569 14.276C11.3069 14.526 11.6461 14.6665 11.9997 14.6665C12.3533 14.6665 12.6924 14.526 12.9425 14.276C13.1925 14.0259 13.333 13.6868 13.333 13.3332V11.9998H18.6663V13.3332C18.6663 13.6868 18.8068 14.0259 19.0569 14.276C19.3069 14.526 19.6461 14.6665 19.9997 14.6665C20.3533 14.6665 20.6924 14.526 20.9425 14.276C21.1925 14.0259 21.333 13.6868 21.333 13.3332V11.9998L23.9997 11.9998V25.3332Z" fill="#383838"/>
</svg>
