<svg width="32" height="32" viewBox="0 0 32 32" fill="none" xmlns="http://www.w3.org/2000/svg">
<path d="M25.3333 9.33317H21.3333V7.99984C21.3333 6.58535 20.7713 5.2288 19.7712 4.2286C18.771 3.22841 17.4144 2.6665 15.9999 2.6665C14.5854 2.6665 13.2289 3.22841 12.2287 4.2286C11.2285 5.2288 10.6666 6.58535 10.6666 7.99984V9.33317H6.66659C6.31296 9.33317 5.97383 9.47365 5.72378 9.72369C5.47373 9.97374 5.33325 10.3129 5.33325 10.6665L5.33325 25.3332C5.33325 26.394 5.75468 27.4115 6.50482 28.1616C7.25497 28.9117 8.27239 29.3332 9.33325 29.3332H22.6666C23.7275 29.3332 24.7449 28.9117 25.495 28.1616C26.2452 27.4115 26.6666 26.394 26.6666 25.3332V10.6665C26.6666 10.3129 26.5261 9.97374 26.2761 9.72369C26.026 9.47365 25.6869 9.33317 25.3333 9.33317ZM13.3333 7.99984C13.3333 7.29259 13.6142 6.61432 14.1143 6.11422C14.6144 5.61412 15.2927 5.33317 15.9999 5.33317C16.7072 5.33317 17.3854 5.61412 17.8855 6.11422C18.3856 6.61432 18.6666 7.29259 18.6666 7.99984V9.33317H13.3333V7.99984ZM23.9999 25.3332C23.9999 25.6868 23.8594 26.0259 23.6094 26.276C23.3593 26.526 23.0202 26.6665 22.6666 26.6665H9.33325C8.97963 26.6665 8.64049 26.526 8.39044 26.276C8.14039 26.0259 7.99992 25.6868 7.99992 25.3332L7.99992 11.9998H10.6666V13.3332C10.6666 13.6868 10.8071 14.0259 11.0571 14.276C11.3072 14.526 11.6463 14.6665 11.9999 14.6665C12.3535 14.6665 12.6927 14.526 12.9427 14.276C13.1928 14.0259 13.3333 13.6868 13.3333 13.3332V11.9998H18.6666V13.3332C18.6666 13.6868 18.8071 14.0259 19.0571 14.276C19.3072 14.526 19.6463 14.6665 19.9999 14.6665C20.3535 14.6665 20.6927 14.526 20.9427 14.276C21.1928 14.0259 21.3333 13.6868 21.3333 13.3332V11.9998L23.9999 11.9998V25.3332Z" fill="#383838"/>
</svg>
