<svg width="32" height="32" viewBox="0 0 32 32" fill="none" xmlns="http://www.w3.org/2000/svg">
<path d="M25.3333 9.33317H21.3333V7.99984C21.3333 6.58535 20.7714 5.2288 19.7712 4.2286C18.771 3.22841 17.4145 2.6665 16 2.6665C14.5855 2.6665 13.229 3.22841 12.2288 4.2286C11.2286 5.2288 10.6667 6.58535 10.6667 7.99984V9.33317H6.66666C6.31304 9.33317 5.9739 9.47365 5.72385 9.72369C5.4738 9.97374 5.33333 10.3129 5.33333 10.6665L5.33333 25.3332C5.33333 26.394 5.75476 27.4115 6.5049 28.1616C7.25505 28.9117 8.27246 29.3332 9.33333 29.3332H22.6667C23.7275 29.3332 24.7449 28.9117 25.4951 28.1616C26.2452 27.4115 26.6667 26.394 26.6667 25.3332V10.6665C26.6667 10.3129 26.5262 9.97374 26.2761 9.72369C26.0261 9.47365 25.687 9.33317 25.3333 9.33317ZM13.3333 7.99984C13.3333 7.29259 13.6143 6.61432 14.1144 6.11422C14.6145 5.61412 15.2928 5.33317 16 5.33317C16.7072 5.33317 17.3855 5.61412 17.8856 6.11422C18.3857 6.61432 18.6667 7.29259 18.6667 7.99984V9.33317H13.3333V7.99984ZM24 25.3332C24 25.6868 23.8595 26.0259 23.6095 26.276C23.3594 26.526 23.0203 26.6665 22.6667 26.6665H9.33333C8.97971 26.6665 8.64057 26.526 8.39052 26.276C8.14047 26.0259 7.99999 25.6868 7.99999 25.3332L7.99999 11.9998H10.6667V13.3332C10.6667 13.6868 10.8071 14.0259 11.0572 14.276C11.3072 14.526 11.6464 14.6665 12 14.6665C12.3536 14.6665 12.6928 14.526 12.9428 14.276C13.1929 14.0259 13.3333 13.6868 13.3333 13.3332V11.9998H18.6667V13.3332C18.6667 13.6868 18.8071 14.0259 19.0572 14.276C19.3072 14.526 19.6464 14.6665 20 14.6665C20.3536 14.6665 20.6928 14.526 20.9428 14.276C21.1929 14.0259 21.3333 13.6868 21.3333 13.3332V11.9998L24 11.9998V25.3332Z" fill="#383838"/>
</svg>
