<svg width="40" height="40" viewBox="0 0 40 40" fill="none" xmlns="http://www.w3.org/2000/svg">
<g clip-path="url(#clip0_193_3027)">
<path d="M14.183 33.3332H14.0497C11.3636 33.3097 8.71637 32.6892 6.29966 31.5165C5.85512 31.3077 5.48909 30.9621 5.25517 30.5302C5.02125 30.0984 4.93171 29.603 4.99966 29.1165C5.07357 28.6268 5.30031 28.173 5.64751 27.8198C5.99471 27.4666 6.44461 27.2321 6.933 27.1499C8.43068 26.9501 9.87147 26.4452 11.1663 25.6665C8.91827 23.9089 7.18758 21.5758 6.1577 18.9145C5.12781 16.2533 4.83708 13.3629 5.31633 10.5499C5.38131 10.1043 5.57294 9.68676 5.86841 9.34697C6.16388 9.00718 6.55076 8.75943 6.983 8.6332C7.40352 8.50114 7.85357 8.49549 8.27728 8.61697C8.70098 8.73846 9.07967 8.98171 9.36633 9.31654C10.3397 10.5928 11.5628 11.6575 12.9612 12.4455C14.3595 13.2335 15.9038 13.7283 17.4997 13.8999C17.5759 11.9363 18.4197 10.0811 19.8497 8.7332C20.5637 8.04949 21.4066 7.51472 22.3294 7.16005C23.2521 6.80538 24.2362 6.6379 25.2243 6.66737C26.2125 6.69685 27.1848 6.92268 28.0848 7.33172C28.9848 7.74076 29.7943 8.32482 30.4663 9.04987C30.6414 9.20465 30.8589 9.30329 31.0907 9.33301C31.3225 9.36272 31.5579 9.32215 31.7663 9.21654C32.1637 9.02912 32.6062 8.95856 33.0422 9.01311C33.4781 9.06766 33.8896 9.24506 34.2286 9.52461C34.5675 9.80417 34.82 10.1743 34.9565 10.592C35.0931 11.0096 35.108 11.4574 34.9997 11.8832C34.6152 13.4667 33.8869 14.9462 32.8663 16.2165C32.6414 20.9578 30.5511 25.4178 27.0512 28.6242C23.5514 31.8306 18.9258 33.5233 14.183 33.3332ZM14.183 29.9999H14.3163C16.2541 30.0665 18.1858 29.7478 19.9995 29.0623C21.8132 28.3768 23.4728 27.3381 24.8821 26.0063C26.2913 24.6746 27.4222 23.0764 28.2091 21.3044C28.996 19.5323 29.4234 17.6217 29.4663 15.6832C29.4939 15.152 29.7129 14.6487 30.083 14.2665C30.4895 13.7519 30.8362 13.1928 31.1163 12.5999C30.5159 12.601 29.922 12.4754 29.3735 12.2313C28.8249 11.9872 28.3341 11.63 27.933 11.1832C27.5473 10.8008 27.0892 10.4992 26.5856 10.296C26.0819 10.0928 25.5427 9.99212 24.9997 9.99987C24.4512 9.98569 23.9053 10.08 23.3933 10.2773C22.8813 10.4747 22.4134 10.7712 22.0163 11.1499C21.4806 11.6582 21.0878 12.2983 20.8772 13.0061C20.6666 13.714 20.6456 14.4647 20.8163 15.1832L21.2497 17.0832L19.2997 17.2165C17.3015 17.3795 15.2918 17.1061 13.4097 16.4155C11.5276 15.7248 9.81814 14.6333 8.39966 13.2165C8.33883 15.4105 8.88767 17.5784 9.98516 19.4792C11.0826 21.3799 12.6858 22.939 14.6163 23.9832L16.1997 24.8832L15.1497 26.3832C14.0142 27.8724 12.4583 28.987 10.683 29.5832C11.8219 29.8686 12.9923 30.0086 14.1663 29.9999H14.183Z" fill="#FAFAFA"/>
</g>
<defs>
<clipPath id="clip0_193_3027">
<rect width="40" height="40" fill="white"/>
</clipPath>
</defs>
</svg>
