<svg width="40" height="40" viewBox="0 0 40 40" fill="none" xmlns="http://www.w3.org/2000/svg">
<g clip-path="url(#clip0_193_2222)">
<path d="M14.1832 33.3332H14.0499C11.3638 33.3097 8.71662 32.6892 6.29991 31.5165C5.85536 31.3077 5.48934 30.9621 5.25541 30.5302C5.02149 30.0984 4.93195 29.603 4.99991 29.1165C5.07382 28.6268 5.30055 28.173 5.64775 27.8198C5.99495 27.4666 6.44486 27.2321 6.93324 27.1499C8.43093 26.9501 9.87172 26.4452 11.1666 25.6665C8.91851 23.9089 7.18783 21.5758 6.15794 18.9145C5.12805 16.2533 4.83733 13.3629 5.31657 10.5499C5.38155 10.1043 5.57318 9.68676 5.86865 9.34697C6.16413 9.00718 6.551 8.75943 6.98324 8.6332C7.40377 8.50114 7.85382 8.49549 8.27752 8.61697C8.70123 8.73846 9.07992 8.98171 9.36657 9.31654C10.3399 10.5928 11.5631 11.6575 12.9614 12.4455C14.3598 13.2335 15.904 13.7283 17.4999 13.8999C17.5761 11.9363 18.42 10.0811 19.8499 8.7332C20.5639 8.04949 21.4068 7.51472 22.3296 7.16005C23.2523 6.80538 24.2365 6.6379 25.2246 6.66737C26.2127 6.69685 27.1851 6.92268 28.0851 7.33172C28.985 7.74076 29.7946 8.32482 30.4666 9.04987C30.6417 9.20465 30.8592 9.30329 31.091 9.33301C31.3227 9.36272 31.5581 9.32215 31.7666 9.21654C32.164 9.02912 32.6065 8.95856 33.0424 9.01311C33.4784 9.06766 33.8899 9.24506 34.2288 9.52461C34.5678 9.80417 34.8202 10.1743 34.9568 10.592C35.0933 11.0096 35.1083 11.4574 34.9999 11.8832C34.6155 13.4667 33.8871 14.9462 32.8666 16.2165C32.6416 20.9578 30.5513 25.4178 27.0515 28.6242C23.5516 31.8306 18.926 33.5233 14.1832 33.3332ZM14.1832 29.9999H14.3166C16.2544 30.0665 18.1861 29.7478 19.9998 29.0623C21.8135 28.3768 23.4731 27.3381 24.8823 26.0063C26.2915 24.6746 27.4224 23.0764 28.2093 21.3044C28.9963 19.5323 29.4236 17.6217 29.4666 15.6832C29.4941 15.152 29.7132 14.6487 30.0832 14.2665C30.4897 13.7519 30.8364 13.1928 31.1166 12.5999C30.5162 12.601 29.9223 12.4754 29.3737 12.2313C28.8252 11.9872 28.3343 11.63 27.9332 11.1832C27.5476 10.8008 27.0895 10.4992 26.5858 10.296C26.0821 10.0928 25.543 9.99212 24.9999 9.99987C24.4514 9.98569 23.9055 10.08 23.3935 10.2773C22.8816 10.4747 22.4136 10.7712 22.0166 11.1499C21.4809 11.6582 21.0881 12.2983 20.8775 13.0061C20.6669 13.714 20.6459 14.4647 20.8166 15.1832L21.2499 17.0832L19.2999 17.2165C17.3017 17.3795 15.292 17.1061 13.4099 16.4155C11.5279 15.7248 9.81838 14.6333 8.39991 13.2165C8.33907 15.4105 8.88791 17.5784 9.9854 19.4792C11.0829 21.3799 12.686 22.939 14.6166 23.9832L16.1999 24.8832L15.1499 26.3832C14.0144 27.8724 12.4585 28.987 10.6832 29.5832C11.8221 29.8686 12.9925 30.0086 14.1666 29.9999H14.1832Z" fill="#FAFAFA"/>
</g>
<defs>
<clipPath id="clip0_193_2222">
<rect width="40" height="40" fill="white"/>
</clipPath>
</defs>
</svg>
