<svg width="40" height="40" viewBox="0 0 40 40" fill="none" xmlns="http://www.w3.org/2000/svg">
<g clip-path="url(#clip0_448_305)">
<path d="M14.184 33.3332H14.0506C11.3646 33.3097 8.71735 32.6892 6.30064 31.5165C5.8561 31.3077 5.49007 30.9621 5.25615 30.5302C5.02222 30.0984 4.93268 29.603 5.00064 29.1165C5.07455 28.6268 5.30129 28.173 5.64848 27.8198C5.99568 27.4666 6.44559 27.2321 6.93397 27.1499C8.43166 26.9501 9.87245 26.4452 11.1673 25.6665C8.91924 23.9089 7.18856 21.5758 6.15867 18.9145C5.12878 16.2533 4.83806 13.3629 5.31731 10.5499C5.38229 10.1043 5.57391 9.68676 5.86939 9.34697C6.16486 9.00718 6.55173 8.75943 6.98397 8.6332C7.4045 8.50114 7.85455 8.49549 8.27825 8.61697C8.70196 8.73846 9.08065 8.98171 9.36731 9.31654C10.3406 10.5928 11.5638 11.6575 12.9621 12.4455C14.3605 13.2335 15.9047 13.7283 17.5006 13.8999C17.5769 11.9363 18.4207 10.0811 19.8506 8.7332C20.5646 8.04949 21.4076 7.51472 22.3303 7.16005C23.2531 6.80538 24.2372 6.6379 25.2253 6.66737C26.2134 6.69685 27.1858 6.92268 28.0858 7.33172C28.9858 7.74076 29.7953 8.32482 30.4673 9.04987C30.6424 9.20465 30.8599 9.30329 31.0917 9.33301C31.3235 9.36272 31.5588 9.32215 31.7673 9.21654C32.1647 9.02912 32.6072 8.95856 33.0432 9.01311C33.4791 9.06766 33.8906 9.24506 34.2295 9.52461C34.5685 9.80417 34.821 10.1743 34.9575 10.592C35.094 11.0096 35.109 11.4574 35.0006 11.8832C34.6162 13.4667 33.8879 14.9462 32.8673 16.2165C32.6424 20.9578 30.5521 25.4178 27.0522 28.6242C23.5523 31.8306 18.9267 33.5233 14.184 33.3332ZM14.184 29.9999H14.3173C16.2551 30.0665 18.1868 29.7478 20.0005 29.0623C21.8142 28.3768 23.4738 27.3381 24.883 26.0063C26.2923 24.6746 27.4231 23.0764 28.2101 21.3044C28.997 19.5323 29.4243 17.6217 29.4673 15.6832C29.4948 15.152 29.7139 14.6487 30.084 14.2665C30.4905 13.7519 30.8372 13.1928 31.1173 12.5999C30.5169 12.601 29.923 12.4754 29.3744 12.2313C28.8259 11.9872 28.335 11.63 27.934 11.1832C27.5483 10.8008 27.0902 10.4992 26.5865 10.296C26.0829 10.0928 25.5437 9.99212 25.0006 9.99987C24.4521 9.98569 23.9062 10.08 23.3943 10.2773C22.8823 10.4747 22.4144 10.7712 22.0173 11.1499C21.4816 11.6582 21.0888 12.2983 20.8782 13.0061C20.6676 13.714 20.6466 14.4647 20.8173 15.1832L21.2506 17.0832L19.3006 17.2165C17.3025 17.3795 15.2927 17.1061 13.4107 16.4155C11.5286 15.7248 9.81911 14.6333 8.40064 13.2165C8.33981 15.4105 8.88864 17.5784 9.98613 19.4792C11.0836 21.3799 12.6868 22.939 14.6173 23.9832L16.2006 24.8832L15.1506 26.3832C14.0151 27.8724 12.4593 28.987 10.684 29.5832C11.8228 29.8686 12.9933 30.0086 14.1673 29.9999H14.184Z" fill="#FAFAFA"/>
</g>
<defs>
<clipPath id="clip0_448_305">
<rect width="40" height="40" fill="white"/>
</clipPath>
</defs>
</svg>
