<svg width="40" height="40" viewBox="0 0 40 40" fill="none" xmlns="http://www.w3.org/2000/svg">
<g clip-path="url(#clip0_193_1730)">
<path d="M14.1835 33.3332H14.0502C11.3641 33.3097 8.71686 32.6892 6.30015 31.5165C5.85561 31.3077 5.48958 30.9621 5.25566 30.5302C5.02173 30.0984 4.9322 29.603 5.00015 29.1165C5.07406 28.6268 5.3008 28.173 5.648 27.8198C5.99519 27.4666 6.4451 27.2321 6.93349 27.1499C8.43117 26.9501 9.87196 26.4452 11.1668 25.6665C8.91875 23.9089 7.18807 21.5758 6.15818 18.9145C5.1283 16.2533 4.83757 13.3629 5.31682 10.5499C5.3818 10.1043 5.57343 9.68676 5.8689 9.34697C6.16437 9.00718 6.55125 8.75943 6.98349 8.6332C7.40401 8.50114 7.85406 8.49549 8.27777 8.61697C8.70147 8.73846 9.08016 8.98171 9.36682 9.31654C10.3402 10.5928 11.5633 11.6575 12.9617 12.4455C14.36 13.2335 15.9042 13.7283 17.5002 13.8999C17.5764 11.9363 18.4202 10.0811 19.8502 8.7332C20.5642 8.04949 21.4071 7.51472 22.3298 7.16005C23.2526 6.80538 24.2367 6.6379 25.2248 6.66737C26.213 6.69685 27.1853 6.92268 28.0853 7.33172C28.9853 7.74076 29.7948 8.32482 30.4668 9.04987C30.6419 9.20465 30.8594 9.30329 31.0912 9.33301C31.323 9.36272 31.5584 9.32215 31.7668 9.21654C32.1642 9.02912 32.6067 8.95856 33.0427 9.01311C33.4786 9.06766 33.8901 9.24506 34.2291 9.52461C34.568 9.80417 34.8205 10.1743 34.957 10.592C35.0936 11.0096 35.1085 11.4574 35.0002 11.8832C34.6157 13.4667 33.8874 14.9462 32.8668 16.2165C32.6419 20.9578 30.5516 25.4178 27.0517 28.6242C23.5519 31.8306 18.9263 33.5233 14.1835 33.3332ZM14.1835 29.9999H14.3168C16.2546 30.0665 18.1863 29.7478 20 29.0623C21.8137 28.3768 23.4733 27.3381 24.8825 26.0063C26.2918 24.6746 27.4227 23.0764 28.2096 21.3044C28.9965 19.5323 29.4238 17.6217 29.4668 15.6832C29.4943 15.152 29.7134 14.6487 30.0835 14.2665C30.49 13.7519 30.8367 13.1928 31.1168 12.5999C30.5164 12.601 29.9225 12.4754 29.374 12.2313C28.8254 11.9872 28.3345 11.63 27.9335 11.1832C27.5478 10.8008 27.0897 10.4992 26.5861 10.296C26.0824 10.0928 25.5432 9.99212 25.0002 9.99987C24.4517 9.98569 23.9058 10.08 23.3938 10.2773C22.8818 10.4747 22.4139 10.7712 22.0168 11.1499C21.4811 11.6582 21.0883 12.2983 20.8777 13.0061C20.6671 13.714 20.6461 14.4647 20.8168 15.1832L21.2502 17.0832L19.3002 17.2165C17.302 17.3795 15.2923 17.1061 13.4102 16.4155C11.5281 15.7248 9.81863 14.6333 8.40015 13.2165C8.33932 15.4105 8.88815 17.5784 9.98564 19.4792C11.0831 21.3799 12.6863 22.939 14.6168 23.9832L16.2002 24.8832L15.1502 26.3832C14.0146 27.8724 12.4588 28.987 10.6835 29.5832C11.8223 29.8686 12.9928 30.0086 14.1668 29.9999H14.1835Z" fill="#FAFAFA"/>
</g>
<defs>
<clipPath id="clip0_193_1730">
<rect width="40" height="40" fill="white"/>
</clipPath>
</defs>
</svg>
