<svg width="24" height="24" viewBox="0 0 24 24" fill="none" xmlns="http://www.w3.org/2000/svg">
<path d="M18 7.125C18 3.8175 15.3075 1.125 12 1.125C8.69247 1.125 5.99997 3.8175 5.99997 7.125C5.99997 10.4325 8.69247 13.125 12 13.125C15.3075 13.125 18 10.4325 18 7.125ZM8.24997 7.125C8.24997 5.055 9.92997 3.375 12 3.375C14.07 3.375 15.75 5.055 15.75 7.125C15.75 9.195 14.07 10.875 12 10.875C9.92997 10.875 8.24997 9.195 8.24997 7.125ZM13.8 14.625H10.2C6.26997 14.625 3.07497 17.82 3.07497 21.75C3.07497 22.3725 3.57747 22.875 4.19997 22.875H19.8C20.4225 22.875 20.925 22.3725 20.925 21.75C20.925 17.82 17.73 14.625 13.8 14.625ZM5.45247 20.625C5.96247 18.48 7.89747 16.875 10.2 16.875H13.8C16.1025 16.875 18.0375 18.48 18.5475 20.625H5.45247Z" fill="#FCC313"/>
</svg>
