<svg width="32" height="32" viewBox="0 0 32 32" fill="none" xmlns="http://www.w3.org/2000/svg">
<path d="M12 10.6667L6.02133 21.3334H2.66667V13.3334C2.64533 12.0707 2.29867 11.4867 1.33333 10.6667H5.33333V17.3334L9.33333 10.6667H12ZM13.312 10.6667L9.34267 21.3334H12L16 10.6667H13.312ZM28.6667 21.3334L28.708 19.2094L25.6667 19.1667L24.604 21.3334H22.3227L28 10.6667H30.6667L31.396 21.3334H28.6667ZM28.6667 13.3747L26.6667 17.3334H28.6453L28.6667 13.3747ZM19.444 12.972C20.2453 10.9707 22.6667 12.9174 23 13.112C23.2773 12.696 23.7507 12.0294 24 11.668C23.056 10.584 19.2427 9.52802 17.3053 11.9187C14 16.0027 20.8053 17.1974 19.6107 18.8347C18.8413 19.8894 16.7773 19.7227 15.2773 18.7227C15.0547 19.14 14.36 20.3894 14.36 20.3894C15.5827 21.1974 16.4987 21.3347 17.7773 21.3347C19.056 21.3347 21.5907 21.1334 22.3227 18.64C23.3893 15 18.556 15.1947 19.444 12.972ZM0 6.66669H32V8.00002H0V6.66669ZM0 24H32V25.3334H0V24Z" fill="#383838"/>
</svg>
