<svg width="57" height="57" viewBox="0 0 57 57" fill="none" xmlns="http://www.w3.org/2000/svg">
<path d="M33.7501 12.75H30.2501C29.786 12.75 29.3408 12.9344 29.0126 13.2626C28.6845 13.5908 28.5001 14.0359 28.5001 14.5C28.5001 14.9641 28.6845 15.4092 29.0126 15.7374C29.3408 16.0656 29.786 16.25 30.2501 16.25H33.7501C34.2142 16.25 34.6593 16.0656 34.9875 15.7374C35.3157 15.4092 35.5001 14.9641 35.5001 14.5C35.5001 14.0359 35.3157 13.5908 34.9875 13.2626C34.6593 12.9344 34.2142 12.75 33.7501 12.75ZM30.1101 41.835C30.0717 41.7235 30.0187 41.6176 29.9526 41.52L29.7426 41.2575C29.5752 41.0994 29.3792 40.9747 29.1651 40.89C28.739 40.715 28.2611 40.715 27.8351 40.89C27.6231 40.9787 27.4277 41.103 27.2576 41.2575C26.9378 41.5929 26.7565 42.0367 26.7501 42.5C26.7528 42.6174 26.7645 42.7344 26.7851 42.85C26.8041 42.9597 26.8395 43.0658 26.8901 43.165C26.9248 43.2726 26.9781 43.3733 27.0476 43.4625C27.1176 43.5675 27.1876 43.655 27.2576 43.7425C27.4279 43.8968 27.6232 44.021 27.8351 44.11C28.0446 44.2024 28.2711 44.2501 28.5001 44.2501C28.7291 44.2501 28.9555 44.2024 29.1651 44.11C29.3769 44.021 29.5722 43.8967 29.7426 43.7425C29.8126 43.655 29.8826 43.5675 29.9526 43.4625C30.0221 43.3733 30.0754 43.2726 30.1101 43.165C30.1603 43.0657 30.1956 42.9596 30.2151 42.85C30.2352 42.7343 30.2469 42.6174 30.2501 42.5C30.246 42.3827 30.2343 42.2658 30.2151 42.15C30.1956 42.0404 30.1603 41.9343 30.1101 41.835ZM26.2426 13.2575C25.9965 13.0147 25.684 12.8502 25.3445 12.7848C25.005 12.7194 24.6538 12.756 24.3351 12.89C24.1208 12.9744 23.9248 13.0992 23.7576 13.2575C23.428 13.587 23.2429 14.034 23.2429 14.5C23.2429 14.966 23.428 15.413 23.7576 15.7425C24.0871 16.072 24.5341 16.2572 25.0001 16.2572C25.4661 16.2572 25.913 16.072 26.2426 15.7425C26.3126 15.655 26.3826 15.5675 26.4526 15.4625C26.5221 15.3733 26.5754 15.2726 26.6101 15.165C26.6603 15.0657 26.6956 14.9596 26.7151 14.85C26.7352 14.7343 26.7469 14.6174 26.7501 14.5C26.7433 14.0367 26.5621 13.5931 26.2426 13.2575Z" fill="#FCC313"/>
<path d="M39 7.5H18C17.5359 7.5 17.0908 7.68437 16.7626 8.01256C16.4344 8.34075 16.25 8.78587 16.25 9.25V47.75C16.25 48.2141 16.4344 48.6592 16.7626 48.9874C17.0908 49.3156 17.5359 49.5 18 49.5H39C39.4641 49.5 39.9093 49.3156 40.2374 48.9874C40.5656 48.6592 40.75 48.2141 40.75 47.75V9.25C40.75 8.78587 40.5656 8.34075 40.2374 8.01256C39.9093 7.68437 39.4641 7.5 39 7.5ZM19.75 11H37.25V35.5H19.75V11ZM19.75 46V39H37.25V46H19.75Z" fill="#383838"/>
</svg>
