<svg width="33" height="32" viewBox="0 0 33 32" fill="none" xmlns="http://www.w3.org/2000/svg">
<path d="M19.5002 7H17.5002C17.235 7 16.9806 7.10536 16.7931 7.29289C16.6055 7.48043 16.5002 7.73478 16.5002 8C16.5002 8.26522 16.6055 8.51957 16.7931 8.70711C16.9806 8.89464 17.235 9 17.5002 9H19.5002C19.7654 9 20.0198 8.89464 20.2073 8.70711C20.3948 8.51957 20.5002 8.26522 20.5002 8C20.5002 7.73478 20.3948 7.48043 20.2073 7.29289C20.0198 7.10536 19.7654 7 19.5002 7ZM17.4202 23.62C17.3982 23.5563 17.368 23.4958 17.3302 23.44L17.2102 23.29C17.1145 23.1997 17.0025 23.1284 16.8802 23.08C16.6367 22.98 16.3636 22.98 16.1202 23.08C15.999 23.1307 15.8874 23.2017 15.7902 23.29C15.6075 23.4816 15.5039 23.7352 15.5002 24C15.5018 24.0671 15.5084 24.1339 15.5202 24.2C15.5311 24.2627 15.5513 24.3233 15.5802 24.38C15.6 24.4415 15.6305 24.499 15.6702 24.55C15.7102 24.61 15.7502 24.66 15.7902 24.71C15.8875 24.7981 15.9991 24.8692 16.1202 24.92C16.2399 24.9728 16.3693 25 16.5002 25C16.631 25 16.7605 24.9728 16.8802 24.92C17.0012 24.8691 17.1128 24.7981 17.2102 24.71C17.2502 24.66 17.2902 24.61 17.3302 24.55C17.3699 24.499 17.4003 24.4415 17.4202 24.38C17.4489 24.3232 17.4691 24.2626 17.4802 24.2C17.4917 24.1339 17.4984 24.0671 17.5002 24C17.4979 23.933 17.4912 23.8662 17.4802 23.8C17.4691 23.7374 17.4489 23.6768 17.4202 23.62ZM15.2102 7.29C15.0696 7.15124 14.891 7.05725 14.697 7.01987C14.503 6.9825 14.3023 7.00342 14.1202 7.08C13.9978 7.12823 13.8857 7.19952 13.7902 7.29C13.6019 7.4783 13.4961 7.7337 13.4961 8C13.4961 8.2663 13.6019 8.5217 13.7902 8.71C13.9785 8.8983 14.2339 9.00409 14.5002 9.00409C14.7665 9.00409 15.0219 8.8983 15.2102 8.71C15.2502 8.66 15.2902 8.61 15.3302 8.55C15.3699 8.49903 15.4003 8.44149 15.4202 8.38C15.4489 8.32325 15.4691 8.2626 15.4802 8.2C15.4917 8.13391 15.4984 8.06706 15.5002 8C15.4963 7.73527 15.3928 7.48174 15.2102 7.29Z" fill="#FCC313"/>
<path d="M22.5 4H10.5C10.2348 4 9.98043 4.10536 9.79289 4.29289C9.60536 4.48043 9.5 4.73478 9.5 5V27C9.5 27.2652 9.60536 27.5196 9.79289 27.7071C9.98043 27.8946 10.2348 28 10.5 28H22.5C22.7652 28 23.0196 27.8946 23.2071 27.7071C23.3946 27.5196 23.5 27.2652 23.5 27V5C23.5 4.73478 23.3946 4.48043 23.2071 4.29289C23.0196 4.10536 22.7652 4 22.5 4ZM11.5 6H21.5V20H11.5V6ZM11.5 26V22H21.5V26H11.5Z" fill="#383838"/>
</svg>
