<svg width="19" height="24" viewBox="0 0 19 24" fill="none" xmlns="http://www.w3.org/2000/svg">
<path fill-rule="evenodd" clip-rule="evenodd" d="M0 8.19643C0 3.66224 4.07039 0 9.06475 0C14.0591 0 18.1295 3.66224 18.1295 8.19643C18.1295 10.474 17.0026 13.3647 15.0469 16.7035C13.6922 19.0164 12.0851 21.3001 10.5156 23.3042L10.5034 23.3197C10.1693 23.7399 9.64848 23.9906 9.09257 23.9987L9.06475 23.9989C8.48915 23.9989 7.94826 23.7386 7.60952 23.2985L7.53261 23.2001C6.01612 21.2552 4.46914 19.0536 3.15283 16.8213L3.08254 16.7016C1.12693 13.3624 0 10.4723 0 8.19643ZM16.3165 8.19643C16.3165 4.6286 13.0774 1.71429 9.06475 1.71429C5.05206 1.71429 1.81295 4.6286 1.81295 8.19643C1.81295 10.1058 2.8507 12.7672 4.66853 15.8711C5.97931 18.1093 7.54497 20.3348 9.07098 22.2841L9.06469 22.2761L9.13759 22.183C10.6122 20.2925 12.119 18.1488 13.393 15.9886L13.461 15.8729C15.2788 12.7694 16.3165 10.1075 16.3165 8.19643Z" fill="#B5C6D0"/>
<path fill-rule="evenodd" clip-rule="evenodd" d="M5.43945 8.57139C5.43945 6.67785 7.06282 5.14282 9.06535 5.14282C11.0679 5.14282 12.6913 6.67785 12.6913 8.57139C12.6913 10.4649 11.0679 12 9.06535 12C7.06282 12 5.43945 10.4649 5.43945 8.57139ZM10.8783 8.57139C10.8783 7.62462 10.0666 6.85711 9.06535 6.85711C8.06409 6.85711 7.2524 7.62462 7.2524 8.57139C7.2524 9.51817 8.06409 10.2857 9.06535 10.2857C10.0666 10.2857 10.8783 9.51817 10.8783 8.57139Z" fill="#B5C6D0"/>
</svg>
