<svg width="24" height="24" viewBox="0 0 24 24" fill="none" xmlns="http://www.w3.org/2000/svg">
<path fill-rule="evenodd" clip-rule="evenodd" d="M0 9.98596C0 4.47087 4.47087 0 9.98596 0C15.5009 0.000351036 19.9716 4.47099 19.9719 9.98596C19.9719 15.5011 15.5011 19.9719 9.98596 19.9719C4.47087 19.9719 0 15.5011 0 9.98596ZM18.1258 9.98602C18.1255 5.49061 14.4813 1.84644 9.9859 1.84615C5.49047 1.84615 1.84615 5.49047 1.84615 9.98596C1.84615 14.4815 5.49047 18.1258 9.98596 18.1258C14.4815 18.1258 18.1258 14.4815 18.1258 9.98602Z" fill="#B5C6D0"/>
<path d="M16.0946 16.0948C16.4501 15.7393 17.0233 15.7344 17.3849 16.08L17.4 16.0948L23.7294 22.4242C24.0899 22.7847 24.0899 23.3692 23.7294 23.7297C23.374 24.0852 22.8007 24.0901 22.4392 23.7445L22.424 23.7297L16.0946 17.4003C15.7341 17.0398 15.7341 16.4553 16.0946 16.0948Z" fill="#B5C6D0"/>
</svg>
