<svg width="24" height="24" viewBox="0 0 24 24" fill="none" xmlns="http://www.w3.org/2000/svg">
<path fill-rule="evenodd" clip-rule="evenodd" d="M0.057753 12.1666C-0.0331823 5.45004 5.46322 -0.0332115 12.1959 0.0575062C18.6529 0.147076 23.9104 5.39205 23.999 11.8347C24.0911 18.5513 18.5959 24.0345 11.8621 23.9427C5.40509 23.8531 0.147537 18.6081 0.057753 12.1666ZM19.2908 18.9204C19.3591 18.924 19.4254 18.8971 19.4719 18.847C21.2008 16.9843 22.1604 14.5387 22.1585 12.0001C22.1585 6.4198 17.6071 1.88105 12.0042 1.89483C6.40135 1.90861 1.80567 6.58516 1.89948 12.1723C1.94063 14.6512 2.89728 17.0277 4.5861 18.8464C4.63251 18.8965 4.69883 18.9234 4.7671 18.9198C4.83538 18.9163 4.89853 18.8826 4.93948 18.828C5.4543 18.1563 6.08473 17.5812 6.80135 17.1297C8.26667 16.1915 10.1234 15.6747 12.029 15.6747C13.9346 15.6747 15.7913 16.1915 17.2566 17.1297C17.9732 17.5814 18.6037 18.1567 19.1185 18.8286C19.1594 18.8832 19.2226 18.9169 19.2908 18.9204Z" fill="#B5C6D0"/>
<path d="M12.0283 5.56958C10.8933 5.56958 9.86711 5.99389 9.1379 6.76499C8.40869 7.53609 8.04437 8.60231 8.12667 9.74661C8.29358 12.0002 10.0438 13.8375 12.0283 13.8375C14.0127 13.8375 15.7595 12.0002 15.9298 9.74719C16.015 8.61379 15.6536 7.55733 14.9123 6.77188C14.1802 5.99676 13.1557 5.56958 12.0283 5.56958Z" fill="#B5C6D0"/>
</svg>
