<svg width="57" height="56" viewBox="0 0 57 56" fill="none" xmlns="http://www.w3.org/2000/svg">
<rect x="0.5" width="56" height="56" rx="16" fill="#FCC313"/>
<path d="M39.5 17.5H17.5C15.57 17.5 14 19.07 14 21V24.66C14 25.49 14.67 26.16 15.5 26.16C16.52 26.16 17.34 26.99 17.34 28C17.34 29.01 16.52 29.84 15.5 29.84C14.67 29.84 14 30.51 14 31.34V35C14 36.93 15.57 38.5 17.5 38.5H39.5C41.43 38.5 43 36.93 43 35V31.34C43 30.51 42.33 29.84 41.5 29.84C40.48 29.84 39.66 29.01 39.66 28C39.66 26.99 40.49 26.16 41.5 26.16C42.33 26.16 43 25.49 43 24.66V21C43 19.07 41.43 17.5 39.5 17.5ZM40 23.39C38.06 24.02 36.66 25.85 36.66 28C36.66 30.15 38.06 31.97 40 32.61V35C40 35.28 39.78 35.5 39.5 35.5H34V31C34 30.17 33.33 29.5 32.5 29.5C31.67 29.5 31 30.17 31 31V35.5H17.5C17.22 35.5 17 35.28 17 35V32.61C18.94 31.98 20.34 30.15 20.34 28C20.34 25.85 18.94 24.03 17 23.39V21C17 20.72 17.22 20.5 17.5 20.5H31V25C31 25.83 31.67 26.5 32.5 26.5C33.33 26.5 34 25.83 34 25V20.5H39.5C39.78 20.5 40 20.72 40 21V23.39Z" fill="#FAFAFA"/>
</svg>
