<svg width="34" height="34" viewBox="0 0 34 34" fill="none" xmlns="http://www.w3.org/2000/svg">
<path d="M31.833 0.333405H2.16634C1.68011 0.333405 1.2138 0.526559 0.869979 0.870376C0.526162 1.21419 0.333008 1.68051 0.333008 2.16674V31.8334C0.333008 32.0742 0.380429 32.3126 0.472562 32.535C0.564696 32.7574 0.699738 32.9595 0.869979 33.1298C1.04022 33.3 1.24232 33.4351 1.46476 33.5272C1.68719 33.6193 1.92558 33.6667 2.16634 33.6667H18.133V20.7501H13.7997V15.7501H18.133V12.0001C18.0432 11.1197 18.1472 10.2303 18.4375 9.3943C18.7279 8.55832 19.1976 7.79598 19.8138 7.16076C20.43 6.52553 21.1776 6.03281 22.0044 5.71713C22.8311 5.40146 23.7169 5.27049 24.5997 5.3334C25.8969 5.32542 27.1935 5.3922 28.483 5.5334V10.0334H25.833C23.733 10.0334 23.333 11.0334 23.333 12.4834V15.7001H28.333L27.683 20.7001H23.333V33.6667H31.833C32.0738 33.6667 32.3122 33.6193 32.5346 33.5272C32.757 33.4351 32.9591 33.3 33.1294 33.1298C33.2996 32.9595 33.4347 32.7574 33.5268 32.535C33.6189 32.3126 33.6663 32.0742 33.6663 31.8334V2.16674C33.6663 1.92598 33.6189 1.68758 33.5268 1.46515C33.4347 1.24272 33.2996 1.04062 33.1294 0.870376C32.9591 0.700135 32.757 0.565093 32.5346 0.472959C32.3122 0.380825 32.0738 0.333405 31.833 0.333405Z" fill="#FAFAFA"/>
</svg>
