<svg width="34" height="34" viewBox="0 0 34 34" fill="none" xmlns="http://www.w3.org/2000/svg">
<path d="M25.8997 6.10007C25.5041 6.10007 25.1174 6.21737 24.7885 6.43713C24.4596 6.6569 24.2033 6.96925 24.0519 7.3347C23.9005 7.70016 23.8609 8.10229 23.9381 8.49025C24.0153 8.87821 24.2058 9.23458 24.4855 9.51429C24.7652 9.79399 25.1215 9.98447 25.5095 10.0616C25.8975 10.1388 26.2996 10.0992 26.665 9.94783C27.0305 9.79646 27.3429 9.54011 27.5626 9.21121C27.7824 8.88231 27.8997 8.49563 27.8997 8.10007C27.8997 7.56964 27.689 7.06093 27.3139 6.68586C26.9388 6.31079 26.4301 6.10007 25.8997 6.10007ZM33.5663 10.1334C33.5339 8.75057 33.2749 7.38241 32.7997 6.0834C32.3759 4.97196 31.7163 3.96554 30.8663 3.1334C30.041 2.27911 29.0323 1.6237 27.9163 1.21674C26.6208 0.727006 25.2511 0.462088 23.8663 0.433404C22.0997 0.333404 21.533 0.333405 16.9997 0.333405C12.4663 0.333405 11.8997 0.333404 10.133 0.433404C8.74826 0.462088 7.37858 0.727006 6.08301 1.21674C4.96914 1.62782 3.96123 2.28267 3.13301 3.1334C2.27872 3.9587 1.6233 4.96747 1.21634 6.0834C0.726609 7.37898 0.461691 8.74866 0.433008 10.1334C0.333008 11.9001 0.333008 12.4667 0.333008 17.0001C0.333008 21.5334 0.333008 22.1001 0.433008 23.8667C0.461691 25.2515 0.726609 26.6212 1.21634 27.9167C1.6233 29.0327 2.27872 30.0414 3.13301 30.8667C3.96123 31.7175 4.96914 32.3723 6.08301 32.7834C7.37858 33.2731 8.74826 33.5381 10.133 33.5667C11.8997 33.6667 12.4663 33.6667 16.9997 33.6667C21.533 33.6667 22.0997 33.6667 23.8663 33.5667C25.2511 33.5381 26.6208 33.2731 27.9163 32.7834C29.0323 32.3764 30.041 31.721 30.8663 30.8667C31.7201 30.0377 32.3802 29.0304 32.7997 27.9167C33.2749 26.6177 33.5339 25.2496 33.5663 23.8667C33.5663 22.1001 33.6663 21.5334 33.6663 17.0001C33.6663 12.4667 33.6663 11.9001 33.5663 10.1334ZM30.5663 23.6667C30.5542 24.7247 30.3626 25.7729 29.9997 26.7667C29.7336 27.4921 29.3061 28.1474 28.7497 28.6834C28.2091 29.2343 27.5551 29.6608 26.833 29.9334C25.8392 30.2963 24.791 30.4879 23.733 30.5001C22.0663 30.5834 21.4497 30.6001 17.0663 30.6001C12.683 30.6001 12.0663 30.6001 10.3997 30.5001C9.30116 30.5206 8.20733 30.3515 7.16634 30.0001C6.47598 29.7135 5.85193 29.288 5.33301 28.7501C4.77982 28.2147 4.35775 27.5587 4.09967 26.8334C3.69277 25.8253 3.46708 24.7533 3.43301 23.6667C3.43301 22.0001 3.33301 21.3834 3.33301 17.0001C3.33301 12.6167 3.33301 12.0001 3.43301 10.3334C3.44048 9.25183 3.63792 8.17998 4.01634 7.16674C4.30975 6.46326 4.76012 5.83617 5.33301 5.3334C5.83936 4.76035 6.46515 4.30523 7.16634 4.00007C8.18226 3.63348 9.253 3.44187 10.333 3.4334C11.9997 3.4334 12.6163 3.3334 16.9997 3.3334C21.383 3.3334 21.9997 3.3334 23.6663 3.4334C24.7243 3.44554 25.7725 3.63715 26.7663 4.00007C27.5237 4.28116 28.2035 4.73815 28.7497 5.3334C29.2958 5.84537 29.7226 6.47129 29.9997 7.16674C30.3701 8.18163 30.5618 9.25304 30.5663 10.3334C30.6497 12.0001 30.6663 12.6167 30.6663 17.0001C30.6663 21.3834 30.6497 22.0001 30.5663 23.6667ZM16.9997 8.45007C15.3094 8.45337 13.6579 8.95761 12.2541 9.8991C10.8503 10.8406 9.75697 12.1771 9.1124 13.7397C8.46782 15.3023 8.30088 17.0208 8.63266 18.6783C8.96445 20.3357 9.78007 21.8576 10.9765 23.0517C12.1729 24.2458 13.6964 25.0584 15.3544 25.387C17.0125 25.7155 18.7308 25.5452 20.2921 24.8976C21.8535 24.25 23.1878 23.1541 24.1266 21.7485C25.0653 20.3428 25.5663 18.6904 25.5663 17.0001C25.5685 15.8752 25.3483 14.7611 24.9184 13.7217C24.4885 12.6822 23.8573 11.7381 23.0611 10.9435C22.265 10.1489 21.3196 9.51954 20.2793 9.09162C19.2391 8.6637 18.1245 8.44568 16.9997 8.45007ZM16.9997 22.5501C15.902 22.5501 14.829 22.2246 13.9163 21.6147C13.0036 21.0049 12.2922 20.1381 11.8721 19.124C11.4521 18.1098 11.3422 16.9939 11.5563 15.9173C11.7705 14.8407 12.2991 13.8518 13.0752 13.0756C13.8514 12.2994 14.8403 11.7709 15.9169 11.5567C16.9935 11.3426 18.1094 11.4525 19.1236 11.8725C20.1377 12.2926 21.0045 13.004 21.6143 13.9167C22.2242 14.8293 22.5497 15.9024 22.5497 17.0001C22.5497 17.7289 22.4061 18.4506 22.1272 19.124C21.8483 19.7973 21.4395 20.4091 20.9241 20.9245C20.4088 21.4399 19.7969 21.8487 19.1236 22.1276C18.4502 22.4065 17.7285 22.5501 16.9997 22.5501Z" fill="#FAFAFA"/>
</svg>
