<svg width="9" height="14" viewBox="0 0 9 14" fill="none" xmlns="http://www.w3.org/2000/svg">
<path d="M0.00040502 6.99976C-0.000609682 6.82428 0.033024 6.65033 0.0993769 6.48788C0.16573 6.32543 0.263496 6.17768 0.387071 6.05309L5.7204 0.719759C5.97148 0.468687 6.312 0.327637 6.66707 0.327637C7.02214 0.327637 7.36267 0.468687 7.61374 0.719759C7.86481 0.970831 8.00586 1.31136 8.00586 1.66643C8.00586 2.02149 7.86481 2.36202 7.61374 2.61309L3.21374 6.99976L7.6004 11.3864C7.81884 11.6415 7.93298 11.9696 7.92002 12.3052C7.90706 12.6407 7.76795 12.9591 7.53049 13.1965C7.29303 13.434 6.97471 13.5731 6.63914 13.586C6.30357 13.599 5.97547 13.4849 5.7204 13.2664L0.387071 7.93309C0.140746 7.68474 0.00187748 7.34954 0.00040502 6.99976Z" fill="#FCC313"/>
</svg>
