<svg width="28" height="18" viewBox="0 0 28 18" fill="none" xmlns="http://www.w3.org/2000/svg">
<path d="M18.353 0.0322273C16.8246 0.031618 15.3218 0.424224 13.989 1.17229C12.6238 0.40924 11.0828 0.0163947 9.51894 0.0327302C7.95504 0.0490656 6.42259 0.474015 5.07362 1.26542C3.72465 2.05682 2.60604 3.18718 1.82877 4.54434C1.0515 5.9015 0.642578 7.43831 0.642578 9.00229C0.642578 10.5663 1.0515 12.1031 1.82877 13.4602C2.60604 14.8174 3.72465 15.9478 5.07362 16.7392C6.42259 17.5306 7.95504 17.9555 9.51894 17.9719C11.0828 17.9882 12.6238 17.5953 13.989 16.8323C15.1856 17.4993 16.519 17.8832 17.887 17.9548C19.255 18.0263 20.6212 17.7834 21.8807 17.2448C23.1403 16.7063 24.2597 15.8863 25.1531 14.8478C26.0465 13.8094 26.6901 12.58 27.0345 11.2542C27.3789 9.9283 27.4149 8.54115 27.1399 7.19918C26.8648 5.85721 26.286 4.59609 25.4478 3.51261C24.6096 2.42912 23.5343 1.55208 22.3044 0.948777C21.0746 0.345477 19.7228 0.0319628 18.353 0.032294V0.0322273ZM11.6496 14.9423C10.9996 15.1749 10.3154 15.2977 9.62511 15.3057C7.95335 15.3057 6.35005 14.6416 5.16794 13.4595C3.98583 12.2774 3.32172 10.6741 3.32172 9.00232C3.32172 7.33056 3.98583 5.72727 5.16794 4.54515C6.35005 3.36304 7.95335 2.69893 9.62511 2.69893C10.3154 2.70691 10.9996 2.82972 11.6496 3.06231C10.1898 4.69652 9.38294 6.81105 9.38294 9.00231C9.38294 11.1936 10.1898 13.3081 11.6496 14.9423V14.9423ZM13.989 13.5325C13.3761 12.9478 12.8882 12.2449 12.5548 11.4662C12.2215 10.6876 12.0496 9.84933 12.0496 9.00229C12.0496 8.15525 12.2215 7.31702 12.5548 6.53834C12.8882 5.75966 13.3761 5.05673 13.989 4.47209C14.602 5.05673 15.0899 5.75966 15.4232 6.53834C15.7566 7.31702 15.9285 8.15525 15.9285 9.00229C15.9285 9.84933 15.7566 10.6876 15.4232 11.4662C15.0899 12.2449 14.602 12.9478 13.989 13.5325ZM18.353 15.3057C17.6627 15.2977 16.9785 15.1749 16.3285 14.9423C17.7883 13.3081 18.5951 11.1936 18.5951 9.00231C18.5951 6.81105 17.7883 4.69652 16.3285 3.06231C16.9785 2.82972 17.6627 2.70691 18.353 2.69893C20.0247 2.69893 21.628 3.36304 22.8101 4.54515C23.9923 5.72727 24.6564 7.33056 24.6564 9.00232C24.6564 10.6741 23.9923 12.2774 22.8101 13.4595C21.628 14.6416 20.0247 15.3057 18.353 15.3057V15.3057Z" fill="#383838"/>
</svg>
