<svg width="96" height="96" viewBox="0 0 96 96" fill="none" xmlns="http://www.w3.org/2000/svg">
<path d="M50.34 69.1013H22.1537C20.1129 69.1013 18.4614 70.7527 18.4614 72.7936C18.4614 74.8345 20.1129 76.4859 22.1537 76.4859H50.34C52.3809 76.4859 54.0323 74.8345 54.0323 72.7936C54.0323 70.7527 52.3809 69.1013 50.34 69.1013ZM50.3436 54.159C43.6128 54.154 49.4353 54.1489 22.1537 54.1914C20.1129 54.1914 18.4614 55.8429 18.4614 57.8837C18.4614 59.9246 20.1129 61.576 22.1537 61.576C22.5242 61.5756 52.3665 61.5453 50.34 61.5436C52.3773 61.5436 54.0323 59.8922 54.0323 57.8549C54.0323 55.814 52.3809 54.159 50.3436 54.159ZM47.5347 19.4751L24.941 19.5003C21.3677 19.5075 18.4614 22.421 18.4614 25.9907V39.1914C18.4614 42.772 21.3713 45.6818 24.9518 45.6818H47.5419C51.1225 45.6818 54.0323 42.772 54.0323 39.1914V25.9655C54.0323 22.385 51.1189 19.4751 47.5347 19.4751ZM46.6477 38.2972H25.846V26.885L46.6477 26.8597V38.2972Z" fill="black"/>
<path d="M92.3078 20.8327C92.3078 12.3447 85.94 5.30989 77.8126 4.82311C75.5407 4.67484 23.3787 4.79328 19.1395 4.79426C10.6227 4.79426 3.69238 11.7246 3.69238 20.2414V84.1861C3.69238 88.0839 6.86185 91.2534 10.7597 91.2534H61.7345C65.6323 91.2534 68.8018 88.0839 68.8018 84.1861V51.15H85.2405C89.1383 51.15 92.3078 47.9806 92.3078 44.0827V20.8327ZM61.4171 83.8688H11.077V20.2414C11.077 15.7955 14.6936 12.1789 19.1395 12.1789C24.462 12.1741 10.6843 12.1864 63.7032 12.1392C62.2207 14.5228 61.4171 17.6726 61.4171 20.2414V47.4577V83.8688ZM84.9231 43.7654H68.8018V20.2414C68.8018 15.3021 73.074 11.9253 77.3727 12.1933C81.5337 12.4457 84.9231 16.3183 84.9231 20.8327V43.7654Z" fill="black"/>
</svg>
