<svg width="32" height="32" viewBox="0 0 32 32" fill="none" xmlns="http://www.w3.org/2000/svg">
<path d="M3.45875 25.2185L15.4587 30.5518H15.4667C15.6344 30.6274 15.8162 30.6664 16.0001 30.6664C16.184 30.6664 16.3658 30.6274 16.5334 30.5518H16.5441L28.5441 25.2185C28.7793 25.1134 28.9791 24.9423 29.1192 24.726C29.2593 24.5098 29.3337 24.2575 29.3334 23.9998V7.99984C29.3271 7.74332 29.2497 7.49359 29.1099 7.27843C28.97 7.06328 28.7733 6.89114 28.5414 6.78118L16.5414 1.44784C16.371 1.37213 16.1866 1.33301 16.0001 1.33301C15.8136 1.33301 15.6292 1.37213 15.4587 1.44784L3.45875 6.78118C3.227 6.89126 3.0303 7.06343 2.89049 7.27856C2.75068 7.49369 2.67323 7.74336 2.66675 7.99984V23.9998C2.66672 24.2578 2.74152 24.5103 2.8821 24.7266C3.02268 24.9429 3.22299 25.1138 3.45875 25.2185ZM5.33341 10.0518L14.6667 14.1998V27.2812L5.33341 23.1332V10.0518ZM26.6667 23.1332L17.3334 27.2812V14.1998L26.6667 10.0518V23.1332ZM16.0001 4.12518L24.7174 7.99984L16.0001 11.8745L7.28275 7.99984L16.0001 4.12518Z" fill="#FCC313"/>
</svg>
