<svg width="26" height="30" viewBox="0 0 26 30" fill="none" xmlns="http://www.w3.org/2000/svg">
<path d="M24.2498 8.47263C24.0196 8.21452 23.7637 7.98052 23.4861 7.77423C23.6 6.88104 23.5213 5.97378 23.255 5.11361C22.9887 4.25344 22.5412 3.46033 21.9425 2.78774C20.4972 1.15883 18.0337 0.333313 14.6196 0.333313H6.33445C5.73589 0.334908 5.15739 0.549245 4.70229 0.938036C4.24719 1.32683 3.94513 1.86475 3.85007 2.45571L0.396939 24.3307C0.348085 24.6239 0.363762 24.9243 0.442878 25.2108C0.521993 25.4973 0.662643 25.7631 0.855025 25.9897C1.04741 26.2163 1.28689 26.3982 1.55679 26.5228C1.82668 26.6474 2.12049 26.7115 2.41774 26.7109H5.96986L5.86053 27.4049C5.81631 27.6841 5.83313 27.9695 5.90983 28.2416C5.98653 28.5136 6.12128 28.7658 6.3048 28.9808C6.48833 29.1957 6.71626 29.3683 6.97291 29.4868C7.22956 29.6052 7.50883 29.6665 7.79147 29.6666H12.104C12.6626 29.6711 13.2046 29.4763 13.6325 29.1171C14.0604 28.7579 14.3462 28.258 14.4386 27.707L15.2928 22.332L15.3071 22.2591H15.7056C21.0819 22.2591 24.44 19.6015 25.4191 14.5755C25.7178 13.538 25.7676 12.4446 25.5645 11.3842C25.3613 10.3238 24.9109 9.32628 24.2498 8.47263ZM7.45685 17.2721L6.50421 23.3192L6.38913 24.0442H3.14174L6.46335 2.99998H14.6196C17.2003 2.99998 19.0428 3.53905 19.9425 4.55206C20.3672 5.04585 20.6634 5.63687 20.8048 6.27264C20.9462 6.90841 20.9284 7.56926 20.7531 8.19651L20.7282 8.34617C20.712 8.44814 20.6973 8.54775 20.6704 8.67446C20.4132 10.5797 19.4611 12.3227 17.9969 13.5685C16.3531 14.7116 14.372 15.2673 12.3735 15.1458H9.94251C9.34222 15.1438 8.76115 15.3573 8.30498 15.7476C7.84881 16.1378 7.54785 16.6788 7.45685 17.2721ZM22.8019 14.0651C22.0675 17.8359 19.8123 19.5924 15.7055 19.5924H15.061C14.5018 19.5881 13.9594 19.7835 13.5314 20.1434C13.1034 20.5034 12.8179 21.0043 12.7263 21.556L11.8605 26.9883L8.62351 27L9.26105 22.9548L10.0759 17.8177H12.3683C12.5774 17.8177 12.7622 17.7863 12.9658 17.7791C13.4442 17.7626 13.9213 17.7442 14.3694 17.6886C14.643 17.6545 14.8942 17.5923 15.1565 17.5437C15.5198 17.4765 15.8834 17.4101 16.2246 17.3153C16.4784 17.2447 16.7152 17.1537 16.9567 17.0678C17.2757 16.9546 17.5897 16.8358 17.8868 16.6963C18.1108 16.5908 18.3242 16.4735 18.5355 16.3532C18.8169 16.1939 19.0894 16.0195 19.352 15.831C19.5417 15.6942 19.7279 15.5538 19.9054 15.403C20.1569 15.1861 20.3959 14.9551 20.6213 14.7111C20.7719 14.5503 20.9262 14.3943 21.0657 14.2214C21.2971 13.9265 21.5108 13.6181 21.7057 13.2979C21.8076 13.135 21.9207 12.9842 22.0145 12.8128C22.2846 12.3186 22.5167 11.8045 22.7088 11.2751C22.7204 11.2433 22.7369 11.2164 22.7482 11.1844C22.7536 11.1695 22.7614 11.157 22.7667 11.142C23.0309 12.0969 23.043 13.104 22.8019 14.0651Z" fill="#383838"/>
</svg>
