<svg width="9" height="14" viewBox="0 0 9 14" fill="none" xmlns="http://www.w3.org/2000/svg">
<path d="M8.99959 7.00024C9.00061 7.17572 8.96698 7.34967 8.90062 7.51212C8.83427 7.67457 8.7365 7.82232 8.61293 7.94691L3.2796 13.2802C3.02852 13.5313 2.688 13.6724 2.33293 13.6724C1.97786 13.6724 1.63733 13.5313 1.38626 13.2802C1.13519 13.0292 0.994141 12.6886 0.994141 12.3336C0.994141 11.9785 1.13519 11.638 1.38626 11.3869L5.78626 7.00024L1.3996 2.61357C1.18116 2.35851 1.06702 2.03041 1.07998 1.69484C1.09294 1.35927 1.23205 1.04095 1.46951 0.803491C1.70697 0.566031 2.02529 0.426923 2.36086 0.413961C2.69642 0.401 3.02453 0.515139 3.2796 0.733575L8.61293 6.06691C8.85925 6.31526 8.99812 6.65045 8.99959 7.00024Z" fill="#FCC313"/>
</svg>
