<svg width="18" height="18" viewBox="0 0 18 18" fill="none" xmlns="http://www.w3.org/2000/svg">
<g clip-path="url(#clip0_898_811)">
<path d="M5.25 13.5C4.425 13.5 3.7575 14.175 3.7575 15C3.7575 15.825 4.425 16.5 5.25 16.5C6.075 16.5 6.75 15.825 6.75 15C6.75 14.175 6.075 13.5 5.25 13.5ZM0.75 2.25C0.75 2.6625 1.0875 3 1.5 3H2.25L4.95 8.6925L3.9375 10.5225C3.39 11.5275 4.11 12.75 5.25 12.75H13.5C13.9125 12.75 14.25 12.4125 14.25 12C14.25 11.5875 13.9125 11.25 13.5 11.25H5.25L6.075 9.75H11.6625C12.225 9.75 12.72 9.4425 12.975 8.9775L15.66 4.11C15.9375 3.615 15.5775 3 15.0075 3H3.9075L3.405 1.9275C3.285 1.665 3.015 1.5 2.73 1.5H1.5C1.0875 1.5 0.75 1.8375 0.75 2.25ZM12.75 13.5C11.925 13.5 11.2575 14.175 11.2575 15C11.2575 15.825 11.925 16.5 12.75 16.5C13.575 16.5 14.25 15.825 14.25 15C14.25 14.175 13.575 13.5 12.75 13.5Z" fill="#001246"/>
</g>
<defs>
<clipPath id="clip0_898_811">
<rect width="18" height="18" fill="white"/>
</clipPath>
</defs>
</svg>
