<svg width="32" height="28" viewBox="0 0 32 28" fill="none" xmlns="http://www.w3.org/2000/svg">
<path d="M10.183 27.3331H10.0497C7.3636 27.3096 4.71637 26.6891 2.29966 25.5164C1.85512 25.3076 1.48909 24.962 1.25517 24.5301C1.02125 24.0983 0.931708 23.6029 0.999664 23.1164C1.07357 22.6267 1.30031 22.1729 1.64751 21.8197C1.99471 21.4665 2.44461 21.232 2.933 21.1498C4.43068 20.95 5.87147 20.4451 7.16633 19.6664C4.91827 17.9088 3.18758 15.5757 2.1577 12.9145C1.12781 10.2532 0.837083 7.36285 1.31633 4.54978C1.38131 4.1042 1.57294 3.68667 1.86841 3.34688C2.16388 3.00709 2.55076 2.75934 2.983 2.63311C3.40352 2.50105 3.85357 2.4954 4.27728 2.61688C4.70098 2.73836 5.07967 2.98162 5.36633 3.31645C6.33967 4.59275 7.56282 5.65738 8.96117 6.44539C10.3595 7.23339 11.9038 7.72825 13.4997 7.89978C13.5759 5.9362 14.4197 4.08097 15.8497 2.73311C16.5637 2.0494 17.4066 1.51463 18.3294 1.15996C19.2521 0.805289 20.2362 0.63781 21.2243 0.667283C22.2125 0.696756 23.1848 0.922592 24.0848 1.33163C24.9848 1.74067 25.7943 2.32473 26.4663 3.04978C26.6414 3.20456 26.8589 3.3032 27.0907 3.33292C27.3225 3.36263 27.5579 3.32206 27.7663 3.21645C28.1637 3.02903 28.6062 2.95847 29.0422 3.01302C29.4781 3.06757 29.8896 3.24497 30.2286 3.52452C30.5675 3.80408 30.82 4.17426 30.9565 4.59187C31.0931 5.00949 31.108 5.45732 30.9997 5.88311C30.6152 7.46664 29.8869 8.9461 28.8663 10.2164C28.6414 14.9577 26.5511 19.4177 23.0512 22.6241C19.5514 25.8305 14.9258 27.5232 10.183 27.3331ZM10.183 23.9998H10.3163C12.2541 24.0664 14.1858 23.7478 15.9995 23.0622C17.8132 22.3767 19.4728 21.338 20.8821 20.0063C22.2913 18.6745 23.4222 17.0763 24.2091 15.3043C24.996 13.5322 25.4234 11.6216 25.4663 9.68311C25.4939 9.15187 25.7129 8.64858 26.083 8.26645C26.4895 7.75186 26.8362 7.19271 27.1163 6.59978C26.5159 6.60092 25.922 6.47533 25.3735 6.23121C24.8249 5.98709 24.3341 5.62994 23.933 5.18311C23.5473 4.8007 23.0892 4.49907 22.5856 4.29589C22.0819 4.0927 21.5427 3.99203 20.9997 3.99978C20.4512 3.9856 19.9053 4.07989 19.3933 4.27723C18.8813 4.47458 18.4134 4.77111 18.0163 5.14978C17.4806 5.65811 17.0878 6.29822 16.8772 7.00606C16.6666 7.71389 16.6456 8.46461 16.8163 9.18311L17.2497 11.0831L15.2997 11.2164C13.3015 11.3794 11.2918 11.1061 9.40969 10.4154C7.52761 9.72471 5.81814 8.6332 4.39966 7.21645C4.33883 9.41044 4.88767 11.5783 5.98516 13.4791C7.08264 15.3798 8.68578 16.9389 10.6163 17.9831L12.1997 18.8831L11.1497 20.3831C10.0142 21.8723 8.4583 22.987 6.683 23.5831C7.82185 23.8686 8.99228 24.0086 10.1663 23.9998H10.183Z" fill="#FAFAFA"/>
</svg>
