<svg width="32" height="20" viewBox="0 0 32 20" fill="none" xmlns="http://www.w3.org/2000/svg">
<path d="M12 4.66669L6.02133 15.3334H2.66667V7.33335C2.64533 6.07069 2.29867 5.48669 1.33333 4.66669H5.33333V11.3334L9.33333 4.66669H12ZM13.312 4.66669L9.34267 15.3334H12L16 4.66669H13.312ZM28.6667 15.3334L28.708 13.2094L25.6667 13.1667L24.604 15.3334H22.3227L28 4.66669H30.6667L31.396 15.3334H28.6667ZM28.6667 7.37469L26.6667 11.3334H28.6453L28.6667 7.37469ZM19.444 6.97202C20.2453 4.97069 22.6667 6.91735 23 7.11202C23.2773 6.69602 23.7507 6.02935 24 5.66802C23.056 4.58402 19.2427 3.52802 17.3053 5.91869C14 10.0027 20.8053 11.1974 19.6107 12.8347C18.8413 13.8894 16.7773 13.7227 15.2773 12.7227C15.0547 13.14 14.36 14.3894 14.36 14.3894C15.5827 15.1974 16.4987 15.3347 17.7773 15.3347C19.056 15.3347 21.5907 15.1334 22.3227 12.64C23.3893 9.00002 18.556 9.19469 19.444 6.97202ZM0 0.666687H32V2.00002H0V0.666687ZM0 18H32V19.3334H0V18Z" fill="#383838"/>
</svg>
